<?xml version="1.0" encoding="utf-8"?>
<!-- Generator: Adobe Illustrator 27.6.1, SVG Export Plug-In . SVG Version: 6.00 Build 0)  -->
<svg version="1.1" id="Capa_1" xmlns="http://www.w3.org/2000/svg" xmlns:xlink="http://www.w3.org/1999/xlink" x="0px" y="0px"
	 viewBox="0 0 283.46 283.46" style="enable-background:new 0 0 283.46 283.46;" xml:space="preserve">
<style type="text/css">
	.st0{fill:#BCBEBC;}
	.st1{fill:#1D1F2D;}
	.st2{fill:#385269;}
	.st3{fill:#EFE8DE;}
	.st4{fill:#A7BCCA;}
	.st5{fill:#B5B1A6;}
	.st6{fill:#92A8B6;}
	.st7{fill:#5B7B93;}
	.st8{fill:#2B4561;}
	.st9{fill:#65869F;}
	.st10{fill:#565250;}
	.st11{fill:#2E5274;}
	.st12{fill:#7F7E76;}
	.st13{fill:#CCDEEC;}
	.st14{fill:#1C2635;}
	.st15{fill:#FFFFFF;}
</style>
<g>
	<path class="st0" d="M186.34,220.04l1.26-1.26l2.86-4.1l0.92-2.1l0.27-0.1l-0.01,0.01l0.05,0.11l-0.06,0.12l-2.06,21.6l0.12,0.02
		l9.48-22.7l0.11-0.14l0.95-3.69l2.09-2.97l-0.06-0.26l-0.45-0.83l1.09,1.75l0.9-1.27l0.32-1.08l0.21-0.38l1.58-1.52l0.36,0.39
		l0.76,0.55l1.22,3.72l0.42,0.37l0.41-0.37l3.18-11.61l0.2-0.35l3.92-16.87l1.06-2.13l0.52-1.99l0.19-4l0.54,0.54l0.95,3.2
		l-0.76,13.95l0.35,1.72l1.01-1.34l4.75-19.46l0.61-0.55l9.93,4.6l0.76-0.18l-0.03-0.36l-8.26-12.9l0.26,0.03l3.62,1.5l0.75-0.54
		l-1.03-4.13l-0.5-0.82l-1.58-5.95l-0.03-0.77l5.02-0.04l0.54-0.85l-0.57-0.55l-2.96-1.74l-0.8-0.24l-1.1-0.59l0.03-0.08l-1.54-1.88
		l-1.32-3.4l-0.59-0.87l-0.14-1.34l3.42-1.14l0.61-0.55l-0.56-0.59l-0.4-0.23l-2.08-1.92l-0.89-1.17l0.05-0.18l-1.07-2.19l-0.1-0.75
		l0.76-0.03l1.1,0.26l1.19-0.04l0.32-0.56l-0.75-1.2l-0.04,0l0.12-0.16l10.14,1.88l0.9-0.06v-0.8l-0.81-0.93l-9.77-7.39l-3.04-3.74
		l-0.56-0.48l-0.29-0.89l0.09-0.04l0.71-0.29l0.46-0.03l2.93,0.02l2.01,0.02l3.13,0.04l0.27-0.77l-9.41-7.38l-0.13-0.21l0.17-0.17
		l8.82-1.08l0.32-0.86l-0.64-0.24l-1.89-0.29l-10.29-3.96l-0.09-0.16l0.22-1.63l-1.66-3.16l-0.15-0.28l0.29-0.01l7.09,1.21
		l0.71-0.26l-0.16-0.87l-4.64-3.48l-0.09-0.36l1.21-0.86l1.5-0.14l4.02-1.12l0.5-0.78l-0.52-0.61l-1.25-0.35l-0.34-0.21l-6.48-1.99
		l-0.16-0.5l3.23-4.46l0.43-1.12l0.13-1.14v-0.07l-1.36-1.52l-0.12-0.59l2.74-5.37l-0.24-0.43l-2.77,0.47l-1.05,0.38l0.13-1.25
		l1.55-4.9l0.13-0.23l-0.27-0.29l-0.86,0.47l-0.57,0.46l-1.42-0.87l-0.39-0.69l-0.57-0.02l-0.05-0.73l0.32-0.66l0.04-0.5l-1.23-4.23
		l-0.13-0.26l-0.03-0.47l-0.17-0.52l-1.05-9.9l-0.79-2.25l0.79,3.5l-2.76-11.65l-0.73-1.44l-2.09-6.94h-0.4h-0.54v0.13l-2.46,1.24
		l-25.27,29.8l-5.36,3.07l-0.02-0.21l-0.36-1.48l-5.86-1.92l-0.7-0.07l-1.56,1.76l-4.99,6.66l-2.27,1.72l-3.31-0.52l-3.04-5.5
		l-1.16-1.12l-0.12,0.22l-0.41,0.23l-0.02-1.35l-0.29,0.19l-0.52,0.01l-1.91-1.65l-0.88-0.38l-0.68,0.01l-2.85-5.05l-0.22-0.11
		l-0.97,0.91l-0.48,0.93l-0.17,0.2l-1.19,2.06l-1.41,1.64l-1.17,3.68l-0.39,0.11l-0.68-2.27l-4.67-7.09l-0.65,0.15l-2.55,4.82
		l-1,0.01l-0.7,0.31l-1.95,1.71L128,57.9l-0.33-0.18l0.07,0.98l-0.06,0.36l-0.38-0.19l-0.2-0.22l-1.18,1.15l-2.98,5.42l-1.74,0.63
		l-1.32-0.07l-0.85-0.43l-0.39-0.54l-1.32-0.95l-0.4-0.78l-4.65-5.73l-1.58-1.75l-0.57,0.05l-5.95,1.98l-0.42,1.15l0.26,0.6
		l-0.59-0.04l-0.79-0.29l-4.57-3.09L74.41,27.61l-4.02-2.57h-0.53l-2.09,6.88L63.93,45.6l0.02,0.16l-0.87,6.5l0.71,2.71l0.8,0.88
		l-0.06,0.41l-0.26,0.05l-0.97-1.17l-0.6,0.17l-0.87,3.53L61.85,60l0.2,0.42l-0.08,0.67l-0.54-0.03l-0.39,0.7l-1.56,0.89l-1.28-0.91
		l-0.3,0.02l0.01,0.32l0.14,0.23l1.65,6.1l-1.04-0.38l-2.77-0.47l-0.26,0.37l2.75,5.43l-0.12,0.59l-1.48,1.6l0.21,1.09l0.6,1.47
		l1.6,1.7l1.38,2.3l-0.24,0.72l-0.87,0.28l-0.14,0.09l-6.92,2.15l-0.35,1.02l0.69,0.46l3.84,1.09l1.46,0.04l0.9,0.57l-0.14,0.81
		l-4.6,3.72l0.18,0.59l1.03,0.11l6.97-1.17l-0.05,0.12l-1.5,2.83l-0.05,2.24l-12.27,4.29l-0.85,0.65l0.25,0.41l9.04,1.11l0.23,0.18
		l-0.19,0.24l-0.43,0.14l-9,7.32l0.23,0.63l3.25-0.01l2.01-0.03h2.93h0.38l0.87,0.36l2.55-1.93l-2.53,1.93l-0.26,0.83l-14.35,12.59
		v0.67v0.13l0.19-0.04l0.69,0.09l10.32-1.87l0.03,0.24l2.63-0.19l3.25-0.93l0.49-0.27l-0.49,0.29l-3.25,0.93l-2.63,0.19l-0.59,0.87
		l0.41,0.9l2.62-0.31l0.33,0.41l-1.09,2.19l-0.12,0.42l0,0l-0.82,1.12l-2.34,2.17l-0.46,0.27l0.02,0.88l0.58,0.31l3.29,1.02
		l0.2-0.53l1.34-1.47l3.06-6.41l0,0.01l-3.05,6.41l-1.34,1.47l-2.36,6.06l-0.94,1.35l-0.63,0.58l0.65,2.15l-0.01,0l-0.65-2.16
		l-5.04,2.67L46.6,147l0.94,0.58l4.52-0.07l-0.02,0.77l-3.1,10.7l0.92,0.65l3.37-1.4l0.44-0.06l-8.26,12.92l-0.02,0.47l0.45,0.16
		l9.86-4.57l0.95,0.55l1.51,10.41l3.38,9.4l0.86,0.97l0.36-1.88l-0.47-15.75l4.73-7.07l1.22-1.11l0.02-0.01l0.47,0.27l-0.22,0.68
		l-4.63,8.63l0.51,2.98l0.61,1l7.27,29.52l0.59,0.54l0.48-0.47l0.94-3.14l1.33-1.43l1.86,2.03l0.45,1.46l0.49,0.69l0.41-0.12
		l0.25-0.57l0.1,1.21l2.04,1.9l10.52,26.38l0,0l0.16,0.34l0.1-0.37l-0.01,0l-2.11-21.73l0.01-0.01l0.19,0.08l0.1,0.16l0.02,0.02
		l2.63,4.84l1.92,2.08l0.76,0.54l-0.38-0.23l0.38,1.22l0.41,0.15l0.23-0.14l0.95,0.18l7.51,10.89l1.27,1.23l13.52,18.61l-0.02,0.14
		h0.27l-0.03-0.14l0.03-0.99l-5.74-17.27l0,0l0.85,1.99l0.22-0.01l0,0.01l1.82,2.7l0.07,0.25l9.06,11.08l1.42,0.44l-0.6-1.24
		l0.58,0.24l0.59,0.49l-0.01-3.31l0.49-2.32l-0.3-0.81l0.09-1.25l-0.2-4.14l0.34-0.69l1.04,0.27l9.76,14.7h0.67l0.77-7.05l0.19-0.3
		l0.19,0.29l0.55,6.11l0.4,0.93h0.53l10.05-15.07l0.35,0.21l1.72-3.19l1.13-1.34l-2.82,4.55l0.26-0.01l0.5,0.48l-0.23,4.19l0.4,0.48
		l-0.57,1.55l0.04,0.89l0.41,1.81l0.02,3.02l0.58-0.5l0.46-0.19l-0.53,1.29l1.58-0.71l10.84-13.86l0.21,0.01l0.73-1.86l0,0
		l-5.69,18.14l-0.06,0.14h0.14h0.13l22.19-30.51l1.38-0.42l0.46-0.23l0.25-1.01 M141.11,60.14l-0.39,0.11"/>
</g>
<g>
	<path class="st1" d="M139.78,252.22h-0.67l-9.76-14.7l-1.04-0.27l-0.22-0.68l-4.96-7.19l-10.07-9.53l-2.19-1.09l-0.35-0.72
		l6.41-14.22l0.13-0.57l-0.26-1.9l-0.37-0.59l-0.64,0.26l-4.14,10.36l-0.91-6.08l-2.39,7.49l-0.21-0.39l-0.41-3.95l-0.79-2.69
		l-1.13-0.21l-2.19,1.58l-0.4-0.96l1.31-2.63l-0.35-1.2l-2.63-1.67l-0.37-0.53l-2.74-6.28l-0.9-4.7l-0.29,0.07l-10.86,11.85
		l-0.4,0.75l-0.33,0.38l-0.68,0.28l-0.5,1.05l4.84,8.32l0.55,0.6l2.11,21.74l-0.25,0.02l-10.52-26.38l-2.04-1.9l-0.1-1.23
		l-0.01,0.02l1.25-1.33l6.02-3.92l10.09-10.87l0.39-0.73l-0.01-5.61l-0.54-0.63l-1.73,0.94h-2.67l-0.37-0.42l0.38-3.56l-0.05-0.39
		l0.15-2.25l-0.91-4.93l-1-0.44l-8.46,6.82l-0.4,0.16l-0.04-0.42l1.5-3.54l1.47-0.32l1.6-1.46l2.67-4.03l-0.57-1.93l-0.24-0.12
		l-1.44,0.24l-4.27,2.12l-4.57,4.03l-1.57-0.47l-0.25-0.3l0.45-1.31l12.98-6.84l0.37-0.43l-0.38-0.33l-3.92-1.25l-11.39-0.94
		l-0.28-0.15l5.06-2.55L88.89,158l0.53-0.33l0.19-2.27l-0.98-2.54l-0.54-0.16l-3.5,2.48l-0.44-0.15l-0.69-2.43l-0.49-0.48
		l-5.24-1.19l-0.51,0.21l-0.47,0.32l-0.62-0.4l-7.97,11.31l0.08,0.16v0.14l-1.22,1.11l-4.73,7.07l0.47,15.75l-0.36,1.88l-0.86-0.97
		l-3.38-9.4l-1.51-10.41l-0.95-0.55l-9.86,4.57l-0.45-0.16l0.02-0.47l8.26-12.92l6.86-6.93l0.26-0.52l-1.5-10.74l-0.68-0.8
		l-1.04,0.41l-4.31,5.56l-0.63,0.46l-0.65-2.16l0.63-0.58l0.94-1.35l2.36-6.06l1.34-1.47l3.05-6.41l-0.05-0.26l-4.2,2.91l-0.62-0.01
		l0.12-0.43l1.09-2.19l-0.33-0.41l-2.62,0.31l-0.41-0.9l0.59-0.87l2.63-0.19l3.25-0.93l12.95-7.64l9.99-13.09l0.16-0.41l-1.79-0.81
		l-0.11-0.75l2.71-0.43l0.56-0.43L83.5,99.3l-0.16-0.1l-0.8-0.75l-1.57,0.05l0.1,0.83l0.39,0.6l-4.98,2.77l-2.34,2.25l-1.91,3.11
		l-0.6,0.02l-0.46,0.23l-10.93,10.6l0.78-7.29l-0.03-0.39l-0.82-0.39l-2.94,2.23l-1.4-0.58l-0.62-0.04l0.48-0.67l4.24-2.22l1.09-1.3
		l8.27-2.78l0.19,0.22l-5.91,6.49l-0.64,1.93L84.94,93l1.29-0.47l1.66-1.08l2.91-1.04l4.58-0.76l0.18,0.15l-0.09,0.16L84.56,95.1
		l-0.45,0.48l0.18,0.43l5.31,0.33l0.02,0.27l-0.85,0.07l-3.92,1.65l-0.86,1.24l0.37,0.32l6.44-2.04l0.52-0.04l-0.37,0.78
		l-10.56,9.76l-0.05,0.37l0.41,0.12l7.42-3.28l1.87-0.26l13.2,1.22l2.67-0.47l-0.18,0.54l-2.81,0.66l-0.5-0.09l-2.3,0.14l-0.26,0.17
		l-8.93-1.4l-2.58,0.44l-5.6,2.48L79,111.52l0.02,0.9l0.34,0.2l12.75,2.4l-0.02,0.02l-0.02,0.2l-0.68,0.33l-0.43,0.73l-1.58,0.49
		l-0.52,0.82l2.03,5.82l-0.69,0.88l-0.21,0.14l-0.15-0.25v-0.27l-0.67-2.78l-0.93-1.98l-0.6-0.39l-1.35,0.97l-3.23,7.67l-0.79,0.39
		l-7.31,9.01l-0.32-0.71l-1.86-9.45l-0.7-0.49l-3.6,1.19l-0.76-0.62l0.21-1.1l-0.3-0.05l-3.22,1.04l-1.27-0.24l-0.51-0.41
		l-1.42,0.36l-0.61,1.69l-0.73,5.67l2.99,16.22l4.18-2.13l0.32-0.31l15.29-5.87l0.68-0.1l-2.29,5.31l-0.06,0.5l0.25,1.13l0.3,0.45
		l15.94,4.94l3.63-0.29l0.63-0.18l0.06-0.62l-7.72-7.07l-0.01-0.95l11.04,9.51l0.25,0.44l2.41,2.37l1.73,2.54l-0.53,0.37l-0.06-0.03
		l-0.81,0.35l0.02,0.65l3.57,11.3l-0.19,0.5l-0.51-0.1l-1.09-5.32l-3.48-8l0.04-0.19l-0.05-0.96l-1.17-1.93l-1.48-0.93l-0.29-0.59
		l-0.91-0.72l-6.26,0.77l-4.6-1.49l-0.8,0.4l-0.87,3.82l0.91,0.88l4.29-0.41l0.23,0.4l-4,5.29l0.19,0.74l14.08,6.84l0.04,0.28
		l-0.13,0.03l-4.88-0.45l7.16,2.21l0.14,0.62l0.95,0.73l0.1-0.93l0.52,0.18l0.92,0.63l2.43,3.98l-9.59-1.96l-1.46-0.02l-0.81,0.34
		l12.13,2.52l0.47,0.77l-0.02,1.45l-0.72,0.59l-7.66,0.23l-0.58,0.27l-1.63-0.03l-0.2,0.11l0.18,0.23l0.39,0.03l0.9-0.16l0.36-0.14
		l8.24,0.26l1.77,0.99l2.37,3.72l0.69,0.7l1.44,0.95l0.21,0.32l2.62,1.51l7.81,8.3l1.66,1.2l0.43,0.48l0.01,0.53l-0.41,0.79
		l9.04,18.88l0.34,1.6l0.21,0.1l1.01-0.86l2.31-7.38l0.21-0.24l4.58-9.69l0.54-2.65l-0.13-0.5l6.67-5.88l1.41-1.93l-0.77,0.13
		l-1.7,0.69l-0.31,0.01l-4.83,1.3l-1.13,0.04l-5.56,2.32l-5.72-0.55l-11.41-3.99l4.74-0.21l8.59-2.32l0.31-0.47l-0.4-0.47l-5.04-0.8
		l-3-2.1l-0.12-0.37l-1.35-1.61l-0.39-0.22l-1.11-1.7l-0.91-4.82l-0.53-0.82l-0.11-5.32l0.21-0.72l0.18,0.35l1.67,5.67l2.23-1.47
		l0.22-0.31l0.66-0.46l13.23-0.4l5.28,1.14l0.89-0.09l3.39-2.1l-0.36,4.13l-2.92,7.09l-0.02,0.12v-0.02l-2.13,2.15l-2.48,1.52
		l-4.03,1.34l-0.36,0.2l0.54,0.38l8.43,2.57h4.18l0.32-0.18l0.33-0.43l6.93-4.34l4.3-5.71l8.86-0.29l0.19-0.15l-0.21-0.2l-8.66-0.23
		l-0.04-2.19l0.4-0.61l12.37-2.64l-2.47-0.21l-9.37,1.96l-0.1-0.16l0.78-2.67l0.66-1l2.26-0.93l0.25,0.76l0.53-0.4l0.44-0.9
		l0.69-0.33l6.53-1.7l0.18-0.18l-5.14,0.6l0.03-0.4l3.17-1.48l0.3-0.25l10.67-5.13l0.18-0.6l-3.8-4.93l-0.36-0.83l4.71,0.39
		l0.82-0.9l-0.88-3.82l-0.81-0.39l-4.14,1.25l-6.44-0.58l-1.2,0.79l-0.39,0.83l-1.56,1.03l-0.83,1.27l-0.13,1.44l-4.37,11.31
		l-0.18,2.02l-0.39,0.16l-0.27-0.08l-0.06-0.49l3.57-11.5l-0.19-0.79l-0.67,0.03l-0.18,0.09l-0.33-0.19l0.04-0.4l1.63-2.67
		l13.27-11.94l0,0l0.26-0.03l0.4,0.46l-0.1,0.17l-7.72,7.18l0.19,0.79l3.15,0.31l16.61-4.77l0.6-0.61l-0.16-2.26l-2.05-4.67
		l16.43,6.03l0.47,0.44l3.28,1.91l0.39,0.03l2.96-16.03l-0.64-5.25l-0.74-2.2l-1.47-0.43l-0.42,0.42l-1.26,0.32l-3.51-1.05l0.1,0.8
		l-0.11,0.87l-0.81-0.01l-3.54-1.15l-0.53,0.38l-2.01,9.86l-0.27,0.37l-7.02-8.76l-0.97-0.63l-0.39-1.53l-2.8-5.89l-1.49-1.17
		l-0.55,0.33l-1.12,2.56l-0.6,2.81l0,0l-1.06-0.94l2.07-5.67l-0.58-1.12l-0.96-0.27l-1.27-1.05l-0.33-0.42l-0.01-0.01l12.07-2.14
		l1.21-0.68l0.01-0.49l-10.58-5.49l-0.91-0.13l-9.01,1.31l-0.69-0.1l-2.16,0.19l-3.55-0.88l-0.19-0.55l5.04,0.75l11.44-1.43
		l2.28,0.55l5.97,2.77l0.84,0.01l-0.32-0.73l-10.25-9.33l-0.39-0.85l0.33,0.03l6.52,2.01l0.48-0.25l-0.18-0.53l-3.15-1.92l-2-0.45
		l-0.4-0.37l5.11-0.31l0.47-0.14l-0.14-0.55l-0.3-0.26l-10.92-5.14l-0.06-0.17l0.14-0.12l3.39,0.6l0.19,0.17l4.02,0.99l7.58,4.77
		l0.14,0.35l1.25,1.25l0.35,0.15l15.62,16.21l-0.03-0.53l-1.34-2.14l-5.25-5.76l-0.07-0.23l8.27,2.67l1.09,1.12l0.22,0.49l0.57,0.53
		l3.57,1.42l0.32,0.2l0.23,0.57l-0.51,0.02l-1.4,0.58l-0.84-0.39l-2.47-1.91l-0.51,0.4l-0.23,1.35l0.98,5.67l-0.08,0.76
		l-10.35-10.01l-1.63-0.89l-1.75-2.9l-3.29-3.08l-3.93-1.87l-0.06-0.25l0.23-0.59l0.12-0.05l0.13-0.75l-0.93-0.48l-0.37,0.09
		l-1.25,1.03l-0.67,1.51l-0.08,0.33l0.69,0.46l2.61,0.38l-0.33,0.85l-1.69,0.76l2.54,3.83l0.7,1.65l4.31,4.83l0.07,0.13l5.54,5.33
		l10.38,5.47l2.52,0.75l2.9,0.2l0.75,1.2l-0.32,0.56l-1.19,0.04l-1.1-0.26l-0.76,0.03l0.1,0.75l1.07,2.19l-0.47,0.17l-3.87-2.8
		l-0.55-0.23l0.07,0.49l2.91,6.29l1.51,1.39l0.25,0.45l0.14,1.36l0.59,0.87l1.32,3.4l1.54,1.88l-0.64,2.12l-0.67-0.39l-4.44-5.72
		l-1.03-0.27l-0.56,0.75l-1.56,7.93l0.74,3.74l6.48,6.56l8.29,12.95l0.03,0.36l-0.76,0.18l-9.93-4.6l-0.61,0.55l-4.75,19.46
		l-1.01,1.34l-0.35-1.72l0.76-13.95l-0.95-3.2l-0.54-0.54l-3.61-5.34l-1.13-0.88l-0.1-0.78l-7.65-10.74l-0.65-0.2l-0.18,0.52
		l-0.44-0.4l-0.62-0.19l-3.64,0.72l-0.46,0.23l-2.22,3.16l-0.39,0.12l-2.07-2.33l-0.58-0.13l-2.74,1.37l-0.28,0.47l0.74,3.03
		l0.55,0.38l12.48,0.86l3.05,1.25l-15.52,2.3l-0.04,0.79l13.16,6.96l-0.05,1.52l-1.45,0.46l-3.85-3.44l-4-2.34l-0.81-0.24
		l-0.15-0.13l-1.41-0.27l-0.49,0.19l-0.5,1.11l0.92,2.64l0.76,1.14l2.99,2.74l1.1,0.05l1.61,3.79l-0.25,0.18l-2.3-1.68l0,0
		l-0.53-0.64l-5.91-4.63l-0.86,0.17l-1.03,5.8l0.33,1.81v2.13l-0.29,0.93l-1.25,1.88h-0.95l-1.03-1.3l-1.12-0.38l-0.43,0.49
		l-0.28,4.1l0.12,0.64l10.87,12.99l5.25,2.83l0.99,1.08l0.45,0.83l0.06,0.26l-2.09,2.97l-0.95,3.69l-0.11,0.14l-9.48,22.7
		l-0.12-0.02l2.08-21.83l5.42-8.91l-0.52-1.05l-12.23-13.26l-0.36-0.08l-1.1,4.79l-3.47,7.41l-0.53,0.45l-1.39,0.46l-0.51,0.87
		l1.41,3.22l-0.2,0.6l-0.51,0.13l-1.86-1.5l-1.26,0.29l-1,4.22l-0.13,2.32l-0.21,0.3l-0.84-3.93l-1.61-3.49l-0.88,6.04l-0.36-0.57
		l-3.88-9.82l-0.51-0.24l-0.39,0.48l-0.05,1.66l0.56,2.81l3.58,5.99l1.11,2.97l0.19,0.31l0.01,0.24l0.16,0.33l0.25,1.4l0.29,0.72
		l0.09,0.45l-0.2,0.6l-2.67,1.35l-5.85,5.48l-0.18,0.34l-0.95,0.94l-0.24,0.16l-2.43,2.49l-0.16,0.29l-3.71,4.4l-1.72,3.19
		l-0.35-0.21l-10.05,15.07h-0.53l-0.4-0.93l-0.55-6.11l-0.19-0.29l-0.19,0.3L139.78,252.22L139.78,252.22z M83.33,121.41l0.06-0.02
		l3.93-4.84l0.06-0.7l-3.9,0.97l-0.85-0.02l-3.35-0.81l-0.82,0.14l-9.42,7.53l-0.02,0.95l0.76-0.07l4.75-2.26l0.68,0.35l-0.76,4.4
		l0.74,4.11l1.45,0.34L83.33,121.41L83.33,121.41z M206.37,122.75l0.67-0.45l5.11,2.44l0.41-0.16l-0.24-1.04l-8.16-7.34l-0.85-0.21
		l-3.23,0.78l-3.43-0.13l-2.49-0.82l0.14,0.9l10.63,14.8l0.56,0.31l0.81-0.78l0.67-3.46L206.37,122.75L206.37,122.75z
		 M178.65,182.86l-1.88,0.04L178.65,182.86L178.65,182.86z"/>
	<polygon class="st1" points="211.7,25.04 213.79,31.98 213.08,31.26 212.47,29.58 212.1,29.23 211.77,29.59 209.8,35.45 
		209.32,36.32 207.87,37.88 207.89,38.66 212.75,44.55 212.52,45.31 207.11,49.34 205.97,51.22 204.74,59.67 205.43,70.61 
		206.19,72.05 207.63,73.13 207.93,73.47 207.66,73.81 200.19,73.53 199.2,73.8 198.6,74.67 196.3,80.48 196.78,81.96 196.13,82.55 
		195.52,82.15 194.7,80.9 186.22,78.96 186.67,78.04 189.5,75.41 189.8,74.99 189.56,74.63 186.63,74.53 187.18,73.87 190.11,72.67 
		195.52,68.81 197.34,68.43 198.15,67.59 193.23,67.3 196.41,65.4 196.85,64.55 197.94,64.12 197.92,63.75 197.49,63.59 
		193.19,63.05 191.71,63.13 191.55,62.95 198.3,58.57 193.77,59.08 193.22,58.98 193.37,58.3 200.75,53.02 201.05,52.55 
		194.87,52.55 193.95,51.88 194.09,51.1 194.41,50.63 202.8,46.63 203.41,46.18 200.95,45.87 199.92,46.26 197.3,46.38 
		193.97,47.63 189.62,51.56 184.68,60.37 183.5,66.04 184.22,67.22 184.78,67.5 185.16,68.06 184.74,74.19 180.61,74.13 
		177.36,74.67 170.17,71.66 169.98,71.12 170,70.74 172.61,65.29 177.54,59.35 183.03,56.21 208.3,26.41 210.76,25.17 211.3,25.04 	
		"/>
	<polygon class="st1" points="67.77,31.92 69.86,25.04 70.39,25.04 74.41,27.61 98.06,55.96 102.63,59.05 103.42,59.34 
		104.01,59.38 110.52,68.05 111.48,70.83 111.5,71.03 111.2,71.68 105.89,73.62 104.14,74.69 101.73,74.05 96.83,74.29 96.36,68.08 
		96.78,67.5 97.21,67.23 98.02,66.23 97.23,61.71 91.96,51.78 90.45,50.05 86.53,47.11 84.22,46.4 81.8,46.24 80.49,45.87 
		77.86,46.16 86.31,50.17 87.54,52.04 86.74,52.56 81.01,52.56 80.48,52.68 80.85,53.08 85.37,55.85 88.1,58.27 88.31,58.6 
		88.04,59.09 83.11,58.56 83.69,59.11 89.88,62.94 89.86,63.16 88.26,63.08 83.83,63.64 83.49,63.97 83.88,64.26 84.67,64.55 
		85.12,65.4 88.12,67.33 83.38,67.6 84.18,68.43 85.94,68.78 90.19,72.04 94.47,73.91 94.93,74.43 94.81,74.57 92.23,74.65 
		91.76,74.78 91.91,75.33 94.81,77.93 95.33,78.96 92.41,79.24 86.63,80.97 86,81.9 86.05,82.17 86.02,82.3 85.58,82.46 
		84.65,82.09 84.9,81.36 85.12,81.21 85.28,80.7 82.82,74.55 81.5,73.53 73.91,73.76 73.68,73.25 75.69,71.73 75.99,71.23 
		76.57,57.08 75.49,51.21 74.58,49.54 71.06,46.52 68.99,45.31 68.74,44.6 73.82,38.49 73.77,38.01 71.98,36.15 69.77,29.67 
		69.45,29.23 69.04,29.62 68.36,31.36 	"/>
	<polygon class="st1" points="186.34,220.05 186.09,221.06 185.63,221.29 184.25,221.71 162.06,252.22 161.93,252.22 161.85,252.08 
		167.54,233.94 167.53,233.95 167.67,233.8 167.66,233.81 167.78,233.7 168.06,233.02 168.61,230.05 172.86,222.95 173.04,222.25 
		173.27,221.83 173.74,221.47 180.63,213.26 181.38,213.75 184.8,220.31 185.57,220.59 185.96,220.13 	"/>
	<polygon class="st2" points="224.31,113.06 224.6,113.95 225.16,114.43 228.2,118.17 237.97,125.56 238.78,126.49 238.78,127.29 
		237.88,127.35 227.74,125.47 226.11,124.52 221.5,119.55 221.17,118.94 221.24,118.17 220.27,112.51 220.5,111.16 221,110.76 
		223.47,112.67 	"/>
	<polygon class="st2" points="42.64,126.49 56.99,113.9 57.25,113.07 60.18,110.83 61,111.23 61.04,111.62 60.25,118.9 60.13,119.2 
		55.68,124.06 55.45,124.52 53.84,125.47 43.52,127.34 42.83,127.25 42.64,127.16 	"/>
	<polygon class="st3" points="154.59,178.41 154.85,172.86 141.64,155.58 141.2,155.65 134.58,165.58 133.74,166.41 130.2,168.64 
		127.2,171.96 126.99,172.68 127.1,178.01 126.98,178.16 126.19,178.42 125.43,178.37 124.69,178.66 124.04,179.6 124.03,181.34 
		123.85,181.66 123.58,181.5 115.52,163.72 113.88,152.64 114,152.29 114.41,152.44 119.33,157.79 120,158.14 123.95,161.83 
		124.35,161.96 124.37,161.52 115.97,150.14 115.56,148.62 115.35,149 114.76,149.45 114.39,149.95 114.31,150.44 113.67,150.59 
		108.1,144.82 107.76,143.87 108.46,143.47 114.02,138.73 114.54,137.12 113.91,133.93 112.7,132.9 109.25,132.77 108.42,132.57 
		105.08,130.89 104.21,130.11 98.96,121.71 97.62,118.3 96.99,117.48 95.41,116.38 94.56,116.07 94.83,115.8 95.21,115.77 
		96.68,116.32 100.62,119.24 107.4,126.72 111.61,129.1 115.85,129.95 117.62,130.78 118.32,133.78 119.51,136.16 120.74,137.33 
		121.53,137.67 122.44,137.57 123.53,137.01 124.23,137 126.51,135.28 126.57,134.9 124.23,130.6 125.04,131.03 126.03,130.6 
		126.77,126.86 127.28,125.64 127.37,124.56 126.14,123.8 128.93,121.3 128.46,121.01 122.64,118.97 120.16,117.43 119.64,116.93 
		115.92,110.58 111.4,96.52 111.86,95.92 113.01,96.31 119.66,101.9 120.21,102.57 121.75,103.21 128.06,111.38 128.1,111.64 
		129.52,115.28 129.84,121.47 127.63,134.73 127.91,135.03 129.51,135.9 132.57,138.89 133.54,142.49 133.48,143.25 127.37,163.9 
		127.58,164.34 128.03,164.11 139.69,146.88 140.45,144.33 140.73,144 141.05,144.27 153.8,164.3 154.07,164.27 148.17,143.57 
		148.06,142.23 148.84,138.93 149.14,138.43 151.99,135.83 153.48,135.04 153.9,134.43 151.55,118.65 152.24,114.34 153.27,111.89 
		153.27,111.54 159.83,103.16 160.28,102.97 168.56,96.27 169.8,95.92 170.12,96.36 169.72,99.25 166.55,108.62 161.64,117.23 
		160.75,117.98 152.91,121.06 152.84,121.6 155.39,123.82 154.25,124.23 154.31,125.73 154.71,126.56 155.41,130.45 156.67,130.87 
		157.18,130.45 157.22,130.73 154.94,134.9 155.01,135.3 157,136.89 158.05,136.89 159.09,137.57 160.05,137.58 160.41,137.29 
		162.92,134.46 163.25,133.9 163.91,130.73 172.6,127.93 177.43,123.18 177.6,123.1 179.76,120.4 179.79,120.21 183.9,116.89 
		186.99,115.73 186.96,116.04 185.37,116.49 184.67,117.13 177.71,129.45 174.22,132.52 173.41,132.77 171.14,132.75 168.22,133.24 
		167.53,134.03 166.88,137.62 167.01,138.18 173.79,143.86 173.45,144.81 168.08,150.4 167.26,150.46 167.17,149.92 166.84,149.45 
		166.13,148.9 165.96,148.6 165.78,149.96 157.41,161.13 157.26,162.03 161.5,158.21 161.78,158.05 167.32,152.23 167.67,152.42 
		166.58,160.3 161.29,175.8 158.08,181.3 157.68,181.59 157.41,181.17 157.42,179.77 156.8,178.65 156.3,178.47 154.98,178.75 	"/>
	<polygon class="st4" points="121.27,102.97 120.21,102.57 119.66,101.9 113.01,96.31 111.86,95.92 111.4,96.52 115.89,110.48 
		115.69,110.98 117.08,115.58 116.96,116.16 116.34,115.87 116.12,114.79 114.35,111.51 113.88,111.06 111.35,109.72 109.27,109.78 
		106.09,107.26 105.74,106.58 105.92,106.05 105.68,105.02 101.13,95.13 105.01,94.42 106.31,93.72 106.71,93.06 105.49,90.93 
		102.29,87.49 102.14,86.97 102.72,86.69 108.76,86.34 109.38,85.84 108.22,85.56 89.73,86.25 89.14,85.91 88.26,84.6 86.64,84.68 
		96.04,82.15 98.11,79.55 97.88,78.9 95.33,78.96 94.81,77.93 91.91,75.33 91.76,74.78 92.23,74.65 94.81,74.57 95.38,74.69 
		96.89,75.51 100.01,75.62 100.64,75.81 102.59,77.01 103.31,76.71 104.6,76.86 114.37,84.99 112.13,85.16 111.78,85.52 
		112.1,85.89 115.75,85.5 116.94,84.78 117.86,83.18 119.73,75.9 120.41,77.35 124.86,79.59 125.78,80.56 128.82,99.94 
		128.69,100.45 128.32,100.46 127.82,94.06 126.59,90.55 125.99,89.91 117.39,86.89 116.6,87.67 	"/>
	<polygon class="st4" points="165.66,110.48 169.92,98.14 170.12,96.36 169.8,95.92 168.56,96.27 162.3,101.24 162.38,97.05 
		164.96,87.44 164.62,86.89 164.03,86.92 157.64,89.01 155.57,90.49 154.32,91.96 153.64,93.75 153.24,100.35 153.04,100.64 
		152.8,100.43 155.61,80.67 156.47,79.74 159.65,78.39 160.87,77.51 161.3,77.36 164.33,84.42 164.98,85.1 165.82,85.5 
		168.88,85.92 169.67,85.75 169.72,85.52 169.02,85.12 167.56,85.12 167.17,84.96 173.91,78.92 175.67,77.9 177.94,77.17 
		178.9,77.04 179.49,76.69 184.74,75.5 184.87,75.5 186.34,74.56 189.56,74.63 189.8,74.99 189.5,75.41 186.67,78.04 186.22,78.96 
		183.54,78.91 183.33,79.45 185.02,81.37 185.04,81.51 185.55,82.17 193.16,84.51 193.26,84.95 192.66,85.88 192.27,85.93 
		191.83,86.26 172.92,85.66 172.05,85.87 172.85,86.34 178.42,86.68 179.43,86.95 179.4,87.38 179.18,87.5 174.95,92.33 
		175.25,93.72 175.42,93.91 180.4,95.13 175.74,105.13 175.62,106.06 175.81,106.61 175.67,106.9 172.41,109.62 170.34,109.59 
		167.87,110.89 167.41,111.36 165.28,115.03 165.68,115.43 164.93,116.04 164.32,115.68 165.9,110.65 	"/>
	<path class="st2" d="M166.6,235.8l-10.84,13.86l-1.58,0.71l7.35-17.86l0.81-6.04l-0.3-0.59l0.18-0.34l5.85-5.48l0.15,2.18
		l0.57,0.29l1.53-0.81l0.68-0.22l0.11,0.21l0.18-0.14l0.08-0.31l1.03-0.71l0.38-1.37l5.64-10.42l-0.21-1.18l-0.55-0.47l0.51-0.13
		l0.2-0.6l-1.41-3.22l0.51-0.87l1.39-0.46l0.53-0.45l3.47-7.41l1.1-4.79l0.36,0.08l12.23,13.26l0.52,1.05l-5.42,8.91l-0.27,0.2
		l-0.92,2l-2.86,4.1l-1.26,1.26l-0.38,0.08l-0.39,0.46l-0.77-0.28l-3.42-6.56l-1.81-1.36l-1.06,0.21l-3,3.95l-1.91,3.94l-0.33,1.34
		l-0.23,0.42l-0.18,0.7l-4.25,7.1l-0.55,2.97l-0.28,0.68l-0.12,0.11l0.02-0.01l-0.14,0.15l0.01-0.01l-0.46,0.58L166.6,235.8
		L166.6,235.8z M184.47,200.49l-0.1-0.4l-0.41,0.14l-4.3,6.97l-0.09,0.36l0.38,1.06l0.32,0.08L184.47,200.49L184.47,200.49z"/>
	<path class="st2" d="M126.73,249.04l0.6,1.24l-1.42-0.44l-9.06-11.08l-0.07-0.25l-1.82-2.7l-0.49-1.28l-0.59-0.72l0.01,0.01
		l-0.37-0.37l-0.96-4.18l-4.42-7.45l-0.08-0.58l-3.09-6.4l-1.74-2.01l-1.53-0.29l-0.79,0.75l-0.81,0.52l-3.43,6.55l-1.05-0.1
		l-0.89-0.63l-1.92-2.08l-2.63-4.84l-0.85-0.84l-4.84-8.32l0.5-1.05l0.68-0.28l0.33-0.38l0.4-0.75l10.87-11.85l0.29-0.07l0.9,4.7
		l2.74,6.28l0.37,0.53l2.63,1.67l0.35,1.2l-1.31,2.63l0.4,0.96l-0.42,0.5l-0.17,0.95l5.2,10.01l0.48,0.57l0.55,1.52l0.92,0.61
		l0.08,0.3l0.21-0.04l0.62,0.15l1.63,0.9l0.51-0.26l0.3-1.89l5.85,5.43l-0.26,0.94l-0.03,3.71L126.73,249.04L126.73,249.04z
		 M97.08,200.84l0.25,1.03l3.85,6.75l0.25,0.17l0.19-0.25l0.02-1.54l-4.04-6.77l-0.34-0.16l-0.16,0.32L97.08,200.84L97.08,200.84z"
		/>
	<polygon class="st5" points="107.76,143.87 108.1,144.82 113.67,150.59 114.31,150.44 114.39,149.95 114.76,149.45 115.35,149 
		115.56,148.62 115.97,150.14 115.61,150.28 115.89,151.23 120,158.14 119.33,157.79 114.41,152.44 114,152.29 113.88,152.64 
		115.52,163.72 123.58,181.5 123.85,181.66 124.03,181.34 124.04,179.6 124.69,178.66 125.43,178.37 126.19,178.42 126.98,178.16 
		127.1,178.01 127.63,178.83 127.77,184.02 127.2,184.91 126.9,185.05 126.65,185.57 128.28,193.83 126.03,193.92 122.82,191.63 
		122.17,191.35 121.78,190.94 117.77,188.43 117.08,187.74 114.71,184.01 112.94,183.02 111.49,182.93 112.01,182.41 112.69,182.19 
		112.94,182.22 113.66,181.63 113.68,180.18 112.33,177.18 110.52,174.56 110.41,174.15 113.37,175.02 116.11,176.51 116.54,176.54 
		115.82,175.79 112.96,173.75 112.54,173.27 112.52,159.19 112.68,158.85 113.04,154.35 112.87,154.04 112.64,154.23 109.48,159.6 
		92.23,142.57 91.75,142.39 91.25,141.9 90.48,140.52 90.28,139.83 90.27,139.84 105.52,143.97 105.89,143.89 	"/>
	<polygon class="st5" points="165.78,149.96 165.96,148.6 166.13,148.9 166.84,149.45 167.17,149.92 167.26,150.46 168.08,150.4 
		173.45,144.81 173.79,143.86 191.28,139.84 191.28,139.84 189.81,142.39 189.12,142.73 187.29,144.47 186.99,144.89 186.99,144.88 
		173.73,156.83 172.1,159.49 171.79,159.17 168.88,154.25 168.67,154.04 168.49,154.29 169.23,173.18 169.94,172.74 170.21,172.82 
		169.93,173.15 165.23,176.23 165.06,176.6 169.63,174.68 170.07,174.7 169.41,175.7 168.21,179.42 167.81,180.03 167.86,182.22 
		167.67,183.09 163.37,188.8 157.93,192.04 157.65,191.96 154.29,193.03 153.76,192.57 154.87,185.71 153.92,184.13 154.19,179.75 
		154.59,178.41 154.98,178.75 156.3,178.47 156.8,178.65 157.42,179.77 157.41,181.17 157.68,181.59 158.08,181.3 161.29,175.8 
		166.58,160.3 167.67,152.42 167.32,152.23 161.78,158.05 161.5,158.21 161.62,157.83 165.83,150.69 	"/>
	<polygon class="st6" points="205.91,201.25 204.33,202.77 204.12,203.15 203.8,204.23 202.9,205.5 201.81,203.75 200.82,202.67 
		195.57,199.84 195.19,199.5 194.55,198.49 195.75,198.92 195.92,198.4 196.36,186.09 195.17,182.91 195.16,182.17 200.34,189.72 
		200.72,189.93 199.96,178.84 200.24,178.44 200.72,178.58 200.93,179 201.6,179.68 201.68,177.11 201.97,176.18 204.33,172.43 
		208.09,176.28 207.99,176.91 211.16,181.29 211.91,183.35 212.26,183.77 209.3,191.76 209.2,191.89 209.16,192.15 209.06,192.29 
		208.9,192.83 208.8,192.96 208.76,193.21 208.66,193.36 207.56,196.16 207.45,196.29 206.87,197.97 206.64,198.3 206.2,199.5 	"/>
	<polygon class="st6" points="79.08,204.71 78.82,205.3 78.41,205.42 77.92,204.73 77.47,203.27 75.61,201.24 75.22,199.77 
		75.37,199.17 69.11,183.47 69.49,183.67 70.02,181.98 73.69,176.6 73.72,176.13 77.33,172.28 78.74,174.96 79.97,179.41 
		80.32,179.45 80.6,178.93 80.97,178.47 81.56,178.82 80.83,189.92 81.26,189.6 86.44,182.04 86.28,182.85 85.69,184.15 
		85.01,187.45 85.61,198.64 85.8,198.95 86.16,198.84 86.49,198.43 86.92,198.67 86.33,199.47 80.31,203.39 79.06,204.72 	"/>
	<polygon class="st7" points="90.28,139.83 90.48,140.52 91.25,141.9 91.75,142.39 91.73,145.78 94.01,153.05 81.52,148.91 
		81.22,148.46 80.97,147.33 81.03,146.83 83.31,141.52 82.64,141.61 67.35,147.48 67.15,147.44 66.93,147.03 82.27,127.81 
		83.07,127.42 88.47,137.73 89.6,138.36 90.45,139.17 101.37,142.75 93.89,141.34 90.22,139.81 	"/>
	<polygon class="st7" points="189.81,142.39 191.28,139.84 191.33,139.81 191.33,139.78 191.28,139.84 186.36,141.48 182.98,141.95 
		190.78,139.3 191.33,138.75 193.01,137.74 198.49,127.38 199.46,128.01 214.53,146.91 214.61,147.49 198.18,141.46 200.23,146.13 
		200.4,148.39 199.8,149 187.54,153.06 189.83,145.38 	"/>
	<polygon class="st8" points="92.92,140.25 90.45,139.17 89.6,138.36 89.57,132.65 89.44,132.54 88.62,134.32 87.27,134.47 
		86.37,134.24 83.07,127.42 86.29,119.75 87.64,118.78 88.27,119.15 89.2,121.13 89.87,123.91 89.87,124.18 90.02,124.43 
		90.23,124.29 90.93,123.41 91.17,123.83 90.51,127.47 90.91,128.41 105.88,137.42 105.9,137.69 107.41,142.62 106.99,143.16 
		93.8,140.12 	"/>
	<polygon class="st8" points="198.49,127.38 195.05,134.25 194.42,134.24 194.14,134.61 192.95,134.54 192.04,132.56 191.95,138.36 
		191.33,138.75 190.78,139.3 188.68,140.24 187.97,140.09 174.54,143.17 174.08,142.74 174.34,140.91 175.4,137.9 177.02,136.1 
		190.94,128.19 191.09,127.75 190.32,123.68 190.48,123.55 191.55,124.49 191.57,124.53 191.61,124.54 191.55,124.48 192.15,121.67 
		193.27,119.11 193.82,118.79 195.31,119.96 198.1,125.85 	"/>
	<polygon class="st8" points="208.09,176.28 204.33,172.43 204.22,172.14 205.66,171.68 205.71,170.16 192.55,163.19 192.6,162.4 
		208.11,160.11 209.31,160.63 209.44,160.79 209.43,160.78 213.23,164.69 215.51,172.45 215.56,176.7 215.41,177.41 214.53,179.13 
		214,179.76 214.07,179.38 213.73,179.02 213.15,179.11 	"/>
	<polygon class="st8" points="77.33,172.28 73.72,176.13 70,178.51 67.54,178.99 67.31,179.22 65.96,176.26 65.78,174.71 
		67.5,166.58 70.05,162.56 71.9,161.16 72.13,160.78 72.12,160.79 72.26,160.65 73.31,160.11 73.6,160.26 84.99,161.2 88.91,162.44 
		89.29,162.77 88.92,163.2 75.93,170.04 75.49,171.35 75.74,171.65 77.31,172.12 	"/>
	<polygon class="st9" points="55.45,124.52 55.68,124.06 60.13,119.2 60.25,118.9 64.25,114.87 64.55,114.76 69.91,110.63 
		71.28,110.81 71.93,111.24 72.27,109.07 72.24,108.05 74.15,104.94 76.49,102.69 81.46,99.92 82.3,99.71 81.35,100.79 80.95,101.9 
		81.06,102.65 82.85,103.45 75.25,113.95 74.74,114.2 71.61,117.07 70.95,117.44 71.11,116.12 70.76,115.44 70.52,116.16 
		70.39,118.47 65.58,121.39 65.25,121.17 57.19,124.91 56.04,125.16 	"/>
	<polygon class="st10" points="149.64,201.76 149.77,202.26 149.23,204.91 144.65,214.6 144.44,214.85 144.41,214.5 145.03,212.61 
		145.02,212.24 144.58,212.67 141.68,221.71 141.19,221.78 140.57,221.39 132.2,205.07 131.53,202.51 131.94,201.72 131.92,201.19 
		131.5,200.71 132.2,201.04 133.26,201.83 137.65,203.88 141.13,204.32 143.12,204.04 	"/>
	<polygon class="st8" points="74.96,136.82 66.93,147.03 67.15,147.44 67.35,147.48 67.03,147.79 62.85,149.92 62.51,148.38 
		62.66,148.38 62.9,148.56 63.44,147.6 67,128.74 66.82,128.41 65.98,128.69 59.86,132.64 60.59,128.03 61.2,126.34 62.63,125.99 
		63.14,126.4 64.41,126.64 67.63,125.6 67.94,125.65 67.72,126.75 68.48,127.36 72.08,126.18 72.78,126.66 74.65,136.11 	"/>
	<polygon class="st11" points="127.2,171.96 129.75,169.31 132.99,167.98 145.65,167.73 145.87,167.86 149.93,168.11 151.46,168.58 
		154.85,172.86 154.95,174.28 151.56,176.39 150.67,176.47 145.64,175.38 145.65,175.25 146.37,175.27 147.21,174.3 147.23,172.97 
		147.09,172.55 145.68,171.83 140.44,171.49 139.61,171.64 139.43,172.76 141.62,174.56 142.22,174.79 145.37,175.22 145.39,175.34 
		132.15,175.73 131.5,176.19 131.28,176.5 129.04,177.97 127.38,172.31 	"/>
	<polygon class="st8" points="214.61,147.49 214.53,146.91 208.73,140.52 206.49,136.77 206.76,136.4 208.77,126.54 209.29,126.15 
		212.83,127.31 213.64,127.32 213.75,126.45 213.65,125.65 217.16,126.69 218.42,126.37 218.84,125.95 220.31,126.38 221.57,132.12 
		221.55,132.52 221.29,132.46 215.58,128.72 214.78,128.48 214.53,128.79 218.15,147.76 218.76,148.51 218.9,148.51 218.74,149.86 
		218.36,149.84 215.08,147.92 	"/>
	<polygon class="st9" points="221.17,118.94 221.5,119.55 226.11,124.52 225.38,125.14 222.71,124.45 216.61,121.29 215.94,121.45 
		211.77,119.28 210.89,118.49 211.16,117.57 210.89,115.67 210.75,115.48 210.54,115.61 210.41,116.43 210.55,117.57 207.15,114.54 
		206.47,114.21 201.84,108.99 201.14,107.34 198.6,103.5 200.29,102.75 200.62,101.89 200.18,100.79 199.67,100.21 200.21,100.2 
		204.15,102.07 207.44,105.15 209.19,108.04 208.96,109.53 209.51,111.02 209.9,111.12 210.46,110.47 211.34,110.47 211.77,110.97 
		214.21,112.67 214.74,112.89 	"/>
	<polygon class="st9" points="77.33,172.28 77.31,172.12 81.88,168.1 86.15,165.98 81.16,177.14 81.2,177.56 81.6,177.4 84,175.61 
		84.83,175.84 86.06,175.87 86.79,176.26 87.68,179.65 88.15,179.3 88.52,179.46 88.41,183.25 88.51,183.53 88.81,183.34 
		88.95,182.3 89.32,181.4 90.84,192.74 91.55,193.62 86.92,198.67 86.49,198.43 86.16,198.84 85.8,198.95 85.61,198.64 
		85.01,187.45 85.69,184.15 86.28,182.85 86.44,182.04 81.26,189.6 80.83,189.92 81.56,178.82 80.97,178.47 80.6,178.93 
		80.32,179.45 79.97,179.41 78.74,174.96 	"/>
	<polygon class="st11" points="103.85,101.41 105.68,105.02 105.92,106.05 99.78,106.58 90.05,105.31 88.18,105.57 80.75,108.85 
		80.34,108.73 80.39,108.35 90.95,98.59 91.32,97.81 92.15,96.96 91.94,96.6 89.62,96.6 89.6,96.33 99.95,94.98 101.13,95.13 	"/>
	<polygon class="st11" points="175.62,106.06 175.74,105.13 180.4,95.13 183.04,95.02 191.48,96.2 191.82,96.34 192.22,96.71 
		191.61,96.83 190.11,96.61 189.03,96.66 190.23,97.81 190.62,98.66 200.87,107.99 201.19,108.72 200.35,108.71 194.38,105.94 
		192.1,105.39 180.66,106.81 	"/>
	<polygon class="st9" points="204.22,172.14 204.33,172.43 201.97,176.18 201.68,177.11 201.6,179.68 200.93,179 200.72,178.58 
		200.24,178.44 199.96,178.84 200.72,189.93 200.34,189.72 195.16,182.17 195.17,182.91 196.36,186.09 195.92,198.4 195.75,198.92 
		194.55,198.49 189.93,193.77 190.8,192.16 192.21,181.74 192.48,181.88 192.55,183.07 192.93,183.46 193.15,182.99 193.02,179.68 
		193.13,179.27 193.91,179.67 194.65,176.44 195.63,175.99 197.83,175.87 197.83,175.87 200.13,177.55 200.38,177.37 195.44,166.26 
		195.55,166.12 196.37,166.36 	"/>
	<polygon class="st2" points="219.33,92.87 220.99,96.03 220.77,97.66 218.76,98.06 218.52,98.25 218.68,98.52 232.53,102.47 
		233.04,102.07 233.68,102.31 233.36,103.17 224.54,104.25 224.37,104.42 224.5,104.63 233.91,112.01 233.64,112.78 230.51,112.74 
		231.23,112.06 232.28,111.89 232.28,111.74 230.06,111.31 225.68,111.69 222.1,110.27 221.54,109.74 221.32,109.25 220.23,108.13 
		219.03,107.57 218.73,106.75 217.54,105.29 217.52,104.52 213.26,93.67 213.34,93.22 213.66,92.89 214.27,92.48 217.14,92.03 
		218.18,92.27 	"/>
	<polygon class="st2" points="51.04,112.74 47.79,112.75 47.56,112.12 56.56,104.8 56.99,104.66 57.18,104.42 56.95,104.24 
		47.91,103.13 47.66,102.72 48.51,102.07 48.83,102.46 49.7,102.43 62.88,98.47 63.03,98.26 62.87,98.08 60.78,97.78 60.83,95.54 
		62.33,92.71 62.88,92.55 63.55,92.12 64.23,92.01 66.98,92.44 67.8,92.86 68.03,94.16 64.06,104.3 63.86,105.33 63.02,106.48 
		62.52,107.57 61.03,108.25 59.94,109.56 55.7,111.78 55.16,111.55 50.72,111.37 49.15,111.86 50.34,112.08 	"/>
	<polygon class="st3" points="217.54,105.29 218.73,106.75 219.03,107.57 211.96,105.46 212.03,105.7 217.28,111.46 218.63,113.59 
		218.65,114.13 201.3,96.17 196.66,93.09 194.6,90.29 194.77,90.21 197.85,90.67 207.18,94.83 213.81,100.32 	"/>
	<polygon class="st3" points="62.52,107.57 63.02,106.48 72,96.33 82.93,90.85 86.93,90.19 86.93,90.19 86.47,90.81 85.57,91.58 
		85.23,92.05 84.94,92.99 77.91,98.35 75.82,100.73 75.71,101.1 62.94,114.11 63.34,112.75 69.67,105.48 69.3,105.47 	"/>
	<polygon class="st8" points="53.67,158.17 53.23,158.23 49.86,159.63 48.94,158.98 52.04,148.28 52.06,147.51 52.46,146.48 
		52.62,145.6 53.25,145.14 57.57,139.59 58.61,139.18 59.29,139.98 60.79,150.72 60.53,151.24 	"/>
	<polygon class="st8" points="229.49,147.5 229.52,148.27 231.1,154.22 231.6,155.04 232.63,159.17 231.88,159.71 228.26,158.21 
		227.88,158.17 221.4,151.62 220.67,147.88 222.23,139.95 222.79,139.2 223.81,139.48 228.25,145.2 228.92,145.59 229.18,146.78 	
		"/>
	<polygon class="st9" points="101.13,95.13 99.95,94.98 89.6,96.33 84.29,96 84.11,95.57 84.55,95.09 95.47,89.95 95.56,89.79 
		95.38,89.64 90.8,90.4 86.93,90.19 86.93,90.19 88.65,88.75 102.14,86.97 102.46,88.55 105.64,93.13 106.31,93.72 105.01,94.42 	
		"/>
	<polygon class="st9" points="191.82,96.34 191.48,96.2 183.04,95.02 180.4,95.13 175.42,93.91 175.25,93.72 175.63,93.46 
		179.33,87.89 179.43,86.95 190.83,88.21 193.16,89.2 194.52,90.18 189.51,90.25 186.12,89.65 185.98,89.77 186.05,89.94 
		196.96,95.08 197.26,95.34 197.4,95.89 196.93,96.03 	"/>
	<polygon class="st4" points="182.21,107.39 191.21,106.08 192.12,106.21 202.45,111.48 202.7,111.7 202.69,112.18 201.48,112.87 
		189.42,115.01 188.57,113.73 180.28,108.01 180.19,107.84 	"/>
	<polygon class="st4" points="92.14,115.01 79.39,112.61 79.05,112.4 79.03,111.5 88.37,106.5 90.95,106.06 101.09,107.84 
		92.67,114 	"/>
	<polygon class="st2" points="91.55,193.62 90.84,192.74 89.32,181.4 88.95,182.3 88.81,183.34 88.51,183.53 88.41,183.25 
		88.52,179.46 88.15,179.3 87.68,179.65 86.79,176.26 86.06,175.87 84.83,175.84 84,175.61 90.06,170.58 91.06,171.02 91.96,175.94 
		91.81,178.19 91.86,178.58 91.48,182.14 91.85,182.56 94.52,182.56 96.25,181.63 96.8,182.26 96.81,187.87 96.42,188.6 	"/>
	<polygon class="st2" points="197.83,175.87 195.63,175.99 194.65,176.44 193.91,179.67 193.13,179.27 193.02,179.68 193.15,182.99 
		192.93,183.46 192.55,183.07 192.48,181.88 192.29,181.45 190.8,192.16 189.93,193.77 184.6,186.87 184.48,186.23 184.75,182.13 
		185.19,181.63 186.3,182.02 187.33,183.32 188.29,183.32 189.54,181.43 189.83,180.5 189.83,178.37 189.5,176.56 190.52,170.77 
		191.39,170.6 197.3,175.22 	"/>
	<polygon class="st12" points="149.64,201.76 143.12,204.04 142.44,203.16 138.96,201.83 137.99,201.09 131.96,198.55 
		130.67,198.75 129.84,198.56 129.34,198.99 122.17,191.35 122.82,191.63 126.03,193.92 126.66,194.75 137.84,199.27 141.57,199.92 
		143.48,199.74 144.3,198.88 144.45,198.17 148.98,196.12 149.47,196.11 148.31,196.92 148.22,197.22 148.5,197.36 156.95,194.08 
		157.72,193.95 156.31,195.88 	"/>
	<polygon class="st3" points="92.14,115.01 92.67,114 101.09,107.84 105.74,106.58 106.09,107.26 109.27,109.78 111.35,109.72 
		113.88,111.06 114.35,111.51 116.12,114.79 116.27,115.62 111.47,113.07 107.16,112.35 96.12,114.05 93.46,115.1 92.13,115.02 	"/>
	<polygon class="st3" points="180.19,107.84 180.28,108.01 188.57,113.73 189.42,115.01 189.42,115.02 187.61,114.96 185.37,114.08 
		172.87,112.37 167.58,114.24 166.18,115.13 166.09,115.16 165.68,115.43 165.68,115.44 165.28,115.03 167.41,111.36 167.87,110.89 
		170.34,109.59 172.41,109.62 175.67,106.9 175.81,106.61 	"/>
	<polygon class="st5" points="126.73,249.04 119.09,230.52 119.11,226.81 119.37,225.87 121.66,228.18 121.83,228.58 123.66,231.18 
		126.02,239.4 128.17,242.08 128.08,243.33 128.38,244.14 127.89,246.46 127.9,249.77 127.31,249.28 	"/>
	<polygon class="st5" points="162.04,225.9 162.34,226.48 161.96,230.65 154.82,249.04 154.25,249.27 153.67,249.77 153.65,246.75 
		153.24,244.94 153.2,244.05 153.77,242.5 154.25,242.12 158.28,229.77 158.43,229.49 160.86,227 161.09,226.84 	"/>
	<polygon class="st12" points="179.31,169.5 179.01,169.75 175.84,171.23 175.17,169.89 180.57,162.25 181.34,161.54 182.95,160.62 
		183.49,160.07 185.69,154.54 189.83,153.3 190.64,153.69 191.53,157.51 190.7,158.4 186,158.02 186.36,158.84 186.77,159.44 
		186.26,161.03 183.8,162.58 179.11,169.02 	"/>
	<polygon class="st12" points="105.7,171.26 102.94,170.05 101.97,169.39 102.51,169.33 101.47,167.97 99.99,164.99 99.23,164.1 
		94.91,160.81 94.86,159.98 95.05,159.63 94.82,159.33 95.43,158.39 95.2,157.99 90.91,158.4 90.01,157.52 90.88,153.7 91.67,153.3 
		96.27,154.79 97.92,159.84 98.71,160.67 99.44,161.12 106.51,170.15 105.96,171.21 	"/>
	<polygon class="st8" points="205.06,158.86 192.59,157.99 192.04,157.61 191.3,154.58 191.58,154.11 194.32,152.74 194.9,152.87 
		196.97,155.2 197.37,155.08 199.59,151.93 200.05,151.7 203.69,150.98 204.3,151.17 204.74,151.57 203.88,155.76 203.33,156.75 
		203.61,157.82 	"/>
	<polygon class="st11" points="198.76,122.74 194.3,116.73 194.17,115.83 196.65,116.65 200.08,116.78 203.31,116 204.16,116.2 
		212.32,123.54 212.56,124.58 212.15,124.74 207.04,122.3 206.09,122.91 205.59,123.05 202.45,122.11 199.41,120.12 198.22,119.82 
		197.84,120.27 	"/>
	<polygon class="st7" points="177.67,207.12 178.22,207.59 178.43,208.78 172.79,219.2 172.4,220.57 171.01,221.52 170.32,221.74 
		168.8,222.55 168.23,222.26 168.08,220.08 170.74,218.73 170.94,218.12 170.85,217.68 170.56,216.95 170.31,215.55 170.14,215.22 
		170.13,214.97 172.34,210.28 172.59,209.92 173.21,212.75 173.42,212.45 173.54,210.13 174.54,205.91 175.8,205.62 	"/>
	<polygon class="st8" points="76.76,151.46 77.23,151.14 77.74,150.93 82.98,152.12 83.46,152.6 84.15,155.03 84.59,155.17 
		88.09,152.69 88.63,152.85 89.61,155.39 89.42,157.66 88.89,157.99 78.38,157.56 78.29,156.98 76.95,154.46 76.67,151.77 	"/>
	<polygon class="st7" points="113.52,220.43 113.22,222.33 112.72,222.59 111.09,221.69 110.47,221.54 109.26,220.67 108.71,219.16 
		108.22,218.59 103.03,208.58 103.2,207.62 103.62,207.13 105.81,205.54 106.94,205.75 107.73,208.44 108.14,212.39 108.35,212.78 
		108.96,209.92 109.78,211.94 111.15,213.89 111.32,214.7 110.53,218.04 110.87,218.75 113.07,219.84 	"/>
	<polygon class="st11" points="75.21,122.63 74.52,122.28 69.78,124.54 69.01,124.61 69.03,123.66 78.46,116.13 79.28,115.99 
		82.63,116.8 83.48,116.82 87.38,115.85 87.32,116.55 83.39,121.38 83.33,121.41 83.68,120.28 83.48,119.83 81.83,120.15 
		79.3,121.85 77.13,122.75 76.16,122.96 	"/>
	<polygon class="st12" points="154.19,179.75 153.92,184.13 154.87,185.71 153.76,192.57 154.29,193.03 157.65,191.96 
		157.93,192.04 156.45,193.15 156.11,193.58 155.8,193.76 151.62,193.76 143.19,191.19 142.65,190.81 143.01,190.61 147.04,189.27 
		149.52,187.75 149.68,187.93 150.45,187.61 151.65,185.61 151.65,185.63 151.67,185.5 153.11,182.98 	"/>
	<polygon class="st12" points="128.28,193.83 126.65,185.57 126.9,185.05 127.2,184.91 127.77,184.02 127.75,179.75 128.54,183.65 
		131.51,187.55 134.51,189.64 139.55,190.44 139.95,190.91 139.64,191.37 131.05,193.69 	"/>
	<polygon class="st6" points="66.82,128.41 67,128.74 63.44,147.6 62.9,148.56 62.66,148.38 62.43,147.81 59.86,133.7 60.76,134.58 
		61.65,133.61 64.18,132.6 64.96,131.92 	"/>
	<polygon class="st6" points="218.76,148.51 218.15,147.76 214.53,128.79 214.78,128.48 214.98,129.64 216.13,131.29 219.63,133.52 
		220.59,134.49 220.7,134.57 221.16,134.12 221.7,133.83 218.9,148.37 	"/>
	<polygon class="st7" points="75.21,122.63 76.16,122.96 77.13,122.75 79.3,121.85 81.83,120.15 83.48,119.83 83.68,120.28 
		83.33,121.41 76.64,131.48 75.19,131.14 74.44,127.03 74.84,123.69 	"/>
	<polygon class="st7" points="198.76,122.74 197.84,120.27 198.22,119.82 199.41,120.12 202.45,122.11 205.59,123.05 206.09,122.91 
		206.37,122.75 206.97,127.59 206.3,131.05 205.49,131.83 204.93,131.53 198.97,123.22 	"/>
	<polygon class="st2" points="189.81,142.39 189.83,145.38 187.54,153.06 183.18,153.77 180.03,153.46 179.84,152.67 187.56,145.49 
		187.65,145.32 187.25,144.86 186.99,144.89 187.29,144.47 189.12,142.73 	"/>
	<polygon class="st2" points="94.01,153.05 91.73,145.78 91.75,142.39 92.23,142.57 94.05,144.74 94.06,145.69 101.78,152.76 
		101.72,153.38 101.09,153.56 97.46,153.85 	"/>
	<polygon class="st10" points="105.7,171.26 105.96,171.21 106.51,170.15 99.44,161.12 98.71,160.67 97.92,159.84 96.27,154.79 
		100.48,154.32 99.37,154.9 99.21,155.5 107.51,170.71 107.75,171.79 105.74,171.54 	"/>
	<polygon class="st10" points="185.69,154.54 183.49,160.07 182.95,160.62 181.34,161.54 180.57,162.25 175.17,169.89 
		175.84,171.23 175.81,171.64 174.08,171.97 173.93,170.84 182.08,155.83 181.68,154.7 180.54,154.21 	"/>
	<polygon class="st12" points="169.01,161.05 168.49,154.29 168.67,154.04 168.88,154.25 171.79,159.17 172.1,159.49 172.07,159.89 
		172.4,160.08 172.58,159.98 173.25,159.95 173.44,160.74 169.88,172.24 169.26,171.87 169.34,159.52 169.14,159.17 169.13,160.43 	
		"/>
	<polygon class="st7" points="205.06,158.86 203.61,157.82 203.33,156.75 203.88,155.76 204.92,151.05 205.58,151.25 213.23,161.98 
		213.3,162.65 211.61,159.84 211.2,159.66 209.83,160.32 209.57,160.73 209.43,160.78 209.44,160.79 209.31,160.63 	"/>
	<polygon class="st5" points="179.31,169.5 179.11,169.02 183.8,162.58 186.26,161.03 186.77,159.44 190.16,163.77 189.98,164.37 	
		"/>
	<polygon class="st5" points="94.82,159.33 95.05,159.63 94.86,159.98 94.91,160.81 99.23,164.1 99.99,164.99 101.47,167.97 
		102.51,169.33 101.97,169.39 91.62,164.43 91.43,163.68 	"/>
	<polygon class="st12" points="109.48,159.6 112.64,154.23 112.87,154.04 113.04,154.35 112.68,158.85 112.53,159.19 112.21,159.28 
		112.28,171.98 111.67,172.25 108.09,160.95 108.07,160.3 108.88,159.94 108.94,159.98 	"/>
	<polygon class="st7" points="76.76,151.46 76.67,151.77 76.95,154.46 78.29,156.98 78.38,157.56 72.26,160.65 72.12,160.79 
		72.13,160.78 71.98,160.74 71.66,160.31 69.99,159.46 76.14,151.06 	"/>
	<polygon class="st0" points="180.54,154.21 181.68,154.7 182.08,155.83 174.48,169.23 174.44,168.44 176.11,159.51 178.05,154.75 
		179.25,153.96 	"/>
	<polygon class="st0" points="107.08,169.34 99.21,155.5 99.37,154.9 100.48,154.32 102.54,154.01 103.45,154.73 105.34,159.47 
		105.49,162.41 107.12,168.6 	"/>
	<polygon class="st10" points="111.25,215.15 111.32,214.7 111.15,213.89 109.78,211.94 108.96,209.92 110.74,205.29 111.66,211.36 
		115.8,201 116.44,200.75 116.8,201.34 117.06,203.24 116.93,203.81 	"/>
	<polygon class="st10" points="172.59,209.92 170.13,214.97 169.94,214.66 168.83,211.69 165.26,205.7 164.69,202.89 164.74,201.23 
		165.13,200.75 165.64,200.98 169.52,210.8 169.89,211.38 170.77,205.33 172.37,208.82 	"/>
	<polygon class="st2" points="226.12,130.21 227.05,131.49 229.13,133.41 229.53,133.64 230.09,134.23 229.48,134.78 225.97,135.95 
		225.72,135.51 224.21,134.11 221.31,127.82 221.24,127.34 221.79,127.57 225.66,130.37 	"/>
	<polygon class="st2" points="55.7,135.98 52.41,134.96 51.83,134.65 51.81,133.77 52.27,133.5 54.61,131.33 55.43,130.21 
		56.05,130.22 60.25,127.3 60.3,127.57 57.24,133.98 55.9,135.45 	"/>
	<polygon class="st5" points="129.34,198.99 129.84,198.56 130.67,198.75 131.96,198.55 137.99,201.09 138.96,201.83 142.44,203.16 
		143.12,204.04 141.13,204.32 137.21,203.74 133.26,201.83 132.2,201.04 131.5,200.71 129.84,199.52 	"/>
	<polygon class="st2" points="158.28,229.77 154.25,242.12 153.77,242.5 153.37,242.02 153.6,237.83 153.1,237.35 152.84,237.36 
		156.18,231.97 	"/>
	<polygon class="st9" points="92.13,115.02 93.88,115.15 94.86,115.67 95.21,115.77 94.83,115.8 94.35,116.32 91.32,123.67 
		91.17,123.83 90.93,123.41 88.9,117.59 89.41,116.77 91,116.28 91.42,115.55 92.11,115.22 	"/>
	<polygon class="st6" points="187.61,114.96 189.42,115.02 189.75,115.44 191.02,116.49 191.98,116.76 192.56,117.88 190.48,123.55 
		190.32,123.68 190.21,123.69 190.13,123.24 186.96,116.04 186.99,115.73 187.55,115.19 186.77,115.07 	"/>
	<polygon class="st2" points="128.17,242.08 126.02,239.4 123.66,231.18 121.83,228.58 121.66,228.18 123.14,229.38 128.1,236.57 
		128.31,237.25 127.97,237.94 	"/>
	<polygon class="st12" points="176.11,159.51 175.5,164.89 174.44,168.44 174.48,169.23 173.93,170.84 174.08,171.97 172.05,172.36 
		174.25,161.01 175.14,159.33 	"/>
	<polygon class="st12" points="107.08,169.34 107.12,168.6 105.49,162.41 105.34,159.47 106.4,159.34 107.68,162.08 107.64,162.74 
		109.36,172.25 107.75,171.79 	"/>
	<polygon class="st10" points="144.45,198.17 144.3,198.88 143.48,199.74 141.57,199.92 137.84,199.27 126.66,194.75 126.03,193.92 
		126.3,193.9 137.71,197.89 143.43,198.44 	"/>
	<polygon class="st8" points="195.44,166.26 198.77,173.58 197.67,173.53 194.68,170.79 193.92,169.65 192.99,167.02 193.5,165.91 
		193.99,165.71 195.4,165.98 	"/>
	<polygon class="st8" points="82.66,173.6 86.15,165.98 87.6,165.73 87.83,165.85 88.4,167.78 85.74,171.82 84.13,173.28 	"/>
	<polygon class="st3" points="107.75,171.79 111.47,172.74 112.54,173.27 112.96,173.75 115.82,175.79 116.54,176.54 116.11,176.51 
		100.74,171.12 105.61,171.57 105.74,171.54 	"/>
	<polygon class="st7" points="229.49,147.5 229.18,146.78 228.92,145.59 229.56,143.46 230.72,144.08 231.52,144.32 234.48,146.06 
		235.05,146.61 234.51,147.46 	"/>
	<polygon class="st7" points="52.62,145.6 52.46,146.48 52.06,147.51 47.54,147.58 46.6,147 46.93,146.11 51.97,143.44 	"/>
	<polygon class="st3" points="172.05,172.36 180.75,171.04 180.77,171.22 170.07,174.7 169.63,174.68 165.06,176.6 165.23,176.23 
		169.93,173.15 170.21,172.82 170.59,172.66 	"/>
	<polygon class="st10" points="110.96,172.65 109.36,172.25 107.64,162.74 107.68,162.08 109.87,167.33 	"/>
	<polygon class="st10" points="172.05,172.36 170.59,172.66 170.77,170.64 173.94,161.49 174.26,161.01 	"/>
	<polygon class="st7" points="66.82,128.41 64.96,131.92 64.18,132.6 61.65,133.61 60.76,134.58 59.86,133.7 59.86,132.64 
		65.98,128.69 	"/>
	<polygon class="st7" points="221.7,133.83 221.16,134.12 220.7,134.57 220.59,134.49 219.63,133.52 216.13,131.29 214.98,129.64 
		214.78,128.48 215.58,128.72 221.29,132.46 221.55,132.52 	"/>
	<polygon class="st7" points="89.62,96.6 91.94,96.6 92.15,96.96 91.32,97.81 90.8,97.85 84.36,99.89 83.99,99.57 84.85,98.33 
		88.77,96.68 	"/>
	<polygon class="st7" points="190.23,97.81 189.03,96.66 190.11,96.61 191.61,96.83 192.22,96.71 194.22,97.16 197.37,99.08 
		197.55,99.61 197.08,99.85 190.56,97.84 	"/>
	<polygon class="st13" points="112.95,178.54 113.21,179.41 101.09,176.89 101.9,176.55 103.36,176.57 	"/>
	<polygon class="st0" points="168.21,179.42 168.57,178.55 178.11,176.57 180.58,176.78 	"/>
	<polygon class="st6" points="55.45,124.52 56.04,125.16 57.19,124.91 65.25,121.17 65.58,121.39 59.75,124.59 56.5,125.52 
		53.87,125.71 53.84,125.47 	"/>
	<polygon class="st2" points="72.24,108.05 72.27,109.07 71.93,111.24 71.28,110.81 69.91,110.63 64.55,114.76 64.25,114.87 
		64.95,114.02 68.3,111.51 71.19,108.31 71.64,108.08 	"/>
	<polygon class="st2" points="214.74,112.89 214.21,112.67 211.77,110.97 211.34,110.47 210.46,110.47 209.9,111.12 209.51,111.02 
		208.96,109.53 209.19,108.04 210.82,108.93 	"/>
	<polygon class="st6" points="215.94,121.45 216.61,121.29 222.71,124.45 225.38,125.14 226.11,124.52 227.74,125.47 227.57,125.69 
		224.67,125.49 222.14,124.74 	"/>
	<polygon class="st12" points="140.57,221.39 141.19,221.78 141.68,221.71 144.58,212.67 145.02,212.24 145.03,212.61 144.41,214.5 
		144.44,214.85 142.13,222.23 141.12,223.09 140.91,222.99 	"/>
	<polygon class="st7" points="225.68,111.69 230.06,111.31 232.28,111.74 232.28,111.89 231.23,112.06 230.51,112.74 228.5,112.72 
		227.72,112.47 226.22,112.46 226,111.89 	"/>
	<polygon class="st7" points="51.04,112.74 50.34,112.08 49.15,111.86 50.72,111.37 55.16,111.55 55.7,111.78 55.22,112.45 
		53.69,112.47 53.05,112.71 	"/>
	<polygon class="st2" points="189.51,90.25 194.52,90.18 194.56,90.17 194.6,90.17 194.6,90.29 196.66,93.09 195.23,92.47 
		193.72,91.41 189.7,90.41 	"/>
	<polygon class="st2" points="86.93,90.19 90.8,90.4 87.89,91.45 86.23,92.52 84.94,92.99 85.23,92.05 85.57,91.58 86.47,90.81 	"/>
	<polygon class="st6" points="69.99,159.46 71.66,160.31 71.98,160.74 68.73,162.93 68.26,162.66 68.26,162.52 	"/>
	<polygon class="st10" points="106.4,159.34 105.34,159.47 103.74,155.33 105.22,156.26 106.39,158.19 106.44,159.14 	"/>
	<polygon class="st6" points="209.57,160.73 209.83,160.32 211.2,159.66 211.61,159.84 213.3,162.65 213.32,162.77 212.82,162.95 	
		"/>
	<polygon class="st10" points="176.11,159.51 175.14,159.33 175.27,157.88 176.1,156.61 177.66,155.58 	"/>
	<polygon class="st6" points="70.39,118.47 70.52,116.16 70.76,115.44 71.11,116.12 70.95,117.44 71.61,117.07 74.74,114.2 
		75.25,113.95 72.7,116.95 	"/>
	<polygon class="st10" points="112.54,173.27 111.47,172.74 111.67,172.25 112.28,171.98 112.21,159.28 112.53,159.19 	"/>
	<polygon class="st6" points="206.47,114.21 207.15,114.54 210.55,117.57 210.41,116.43 210.54,115.61 210.75,115.48 210.89,115.67 
		211.16,117.57 210.89,118.49 	"/>
	<polygon class="st10" points="169.01,161.05 169.13,160.43 169.14,159.17 169.34,159.52 169.26,171.87 169.88,172.24 
		169.94,172.74 169.23,173.18 169.02,172.14 	"/>
	<polygon class="st10" points="155.25,194.77 149.27,197.2 148.5,197.36 148.22,197.22 148.31,196.92 149.47,196.11 150.12,196.08 
		154.94,194.78 	"/>
	<polygon class="st8" points="200.21,100.2 199.67,100.21 198.08,99.21 199.33,98.18 199.7,98.09 200.63,98.57 200.5,99.31 
		200.38,99.36 200.15,99.95 	"/>
	<polygon class="st0" points="175.61,182.8 172.2,182.78 172.05,182.59 170.69,182.56 170.46,182.89 169,182.95 169.35,182.67 
		169.86,182.49 169.11,182.42 168.88,182.17 176.51,182.45 176.72,182.66 176.53,182.8 	"/>
	<polygon class="st0" points="112.69,182.19 112.01,182.41 111.49,182.93 111.23,182.92 110.91,182.48 109.48,182.55 109.22,182.79 
		104.69,182.76 104.7,182.72 105.28,182.45 	"/>
	<polygon class="st13" points="198.89,99.66 199.67,100.21 200.18,100.79 200.62,101.89 198.02,101.51 197.33,101.05 197.41,100.72 
		199.49,101.26 199.76,101.14 199.67,100.9 198.97,100.21 	"/>
	<polygon class="st13" points="80.95,101.9 81.35,100.79 82.3,99.71 82.61,99.6 82.64,100.15 81.98,100.69 81.78,101.13 
		82.24,101.2 84.07,100.69 84.22,101.04 83.66,101.46 	"/>
	<polygon class="st8" points="82.61,99.6 81.46,99.92 81.07,99.32 80.97,98.49 82.54,98.44 83.34,99.19 	"/>
	<polygon class="st4" points="198.89,99.66 198.97,100.21 199.67,100.9 199.76,101.14 199.49,101.26 197.41,100.72 198.08,99.21 	
		"/>
	<polygon class="st0" points="82.61,99.6 83.34,99.19 83.51,99.29 84.07,100.69 82.24,101.2 81.78,101.13 81.98,100.69 
		82.64,100.15 	"/>
	<polygon class="st10" points="105.09,154.25 107.75,157.06 105.34,154.69 	"/>
	<polygon class="st3" points="151.65,185.61 150.45,187.61 149.68,187.93 149.52,187.75 	"/>
	<polygon class="st8" points="102.94,107.24 101.09,107.84 99.88,107.45 100.14,107.29 102.44,107.15 	"/>
	<polygon class="st12" points="168.88,182.17 169.11,182.42 169.86,182.49 169.35,182.67 169,182.95 167.67,183.09 167.86,182.22 	
		"/>
	<polygon class="st5" points="75.71,101.1 75.82,100.73 77.91,98.35 78.4,98.06 	"/>
	<polygon class="st14" points="131.51,187.55 129.66,185.35 130.04,185.57 131.39,187.18 	"/>
	<polygon class="st10" points="107.89,173.33 109.09,173.75 108.98,174.68 108.04,173.95 	"/>
	<polygon class="st10" points="179.66,107.69 179.55,107.67 179.36,107.49 181.52,107.29 182.21,107.39 180.19,107.84 	"/>
	<polygon class="st12" points="172.34,173.77 173.56,173.24 173.11,174.14 172.59,174.53 	"/>
	<polygon class="st5" points="109.22,182.79 109.48,182.55 110.91,182.48 111.23,182.92 	"/>
	<polygon class="st10" points="119.21,189.38 121.78,190.94 121.75,191.1 119.42,189.71 	"/>
	<polygon class="st9" points="53.05,112.71 53.69,112.47 55.84,112.49 55.98,112.71 	"/>
	<polygon class="st8" points="201.3,96.17 203.03,97.92 202.68,97.77 201.44,96.52 	"/>
	<polygon class="st9" points="226.22,112.46 227.72,112.47 228.5,112.72 225.57,112.7 225.71,112.49 	"/>
	<polygon class="st6" points="170.46,182.89 170.69,182.56 172.05,182.59 172.2,182.78 	"/>
	<path class="st12" d="M178.65,182.86l-1.88,0.04L178.65,182.86z"/>
	<polygon class="st7" points="69.19,160.79 68.26,162.52 68.17,162.37 	"/>
	<polygon class="st10" points="104.33,182.9 103.43,183.05 103.04,183.03 102.87,182.8 103.07,182.69 104.31,182.71 	"/>
	<polygon class="st6" points="64.4,111.29 63.34,112.75 63.58,112.18 	"/>
	<path class="st8" d="M204.23,111.41l1.06,1.33L204.23,111.41z"/>
	<path class="st13" d="M153.11,182.98l-0.52,0.9L153.11,182.98z"/>
	<polygon class="st10" points="109.6,173.93 110.41,174.15 110.52,174.56 	"/>
	<polygon class="st4" points="179.36,107.49 179.55,107.67 178.34,107.25 	"/>
	<path class="st10" d="M110.08,166.5l0.43,1.13L110.08,166.5z"/>
	<path class="st10" d="M106.15,182.8h0.83H106.15z"/>
	<path class="st8" d="M76.28,112.62l0.54-0.64L76.28,112.62z"/>
	<path class="st12" d="M65.46,111.14l0.48-0.57L65.46,111.14z"/>
	<path class="st12" d="M66,110.48l0.53-0.53L66,110.48z"/>
	<path class="st10" d="M170.56,216.95l0.29,0.73L170.56,216.95z"/>
	<polygon class="st2" points="225.71,112.49 225.57,112.7 225.04,112.73 	"/>
	<path class="st2" d="M199.02,176.8l-0.52-0.4L199.02,176.8z"/>
	<path class="st2" d="M198.36,176.27l-0.53-0.4L198.36,176.27z"/>
	<path class="st8" d="M75.61,113.42l0.4-0.53L75.61,113.42z"/>
	<polygon class="st2" points="55.98,112.71 55.84,112.49 56.39,112.71 	"/>
	<polygon class="st2" points="62.43,147.81 62.66,148.38 62.51,148.38 	"/>
	<path class="st2" d="M215.13,113.17l-0.38-0.27L215.13,113.17z"/>
	<polygon class="st5" points="104.33,182.9 104.31,182.71 104.7,182.72 104.69,182.76 	"/>
	<polygon class="st12" points="69.3,105.47 69.67,105.48 69.49,105.69 	"/>
	<path class="st10" d="M104.14,153.47l0.29,0.24L104.14,153.47z"/>
	<polygon class="st12" points="121.75,191.1 121.78,190.94 122.03,191.22 	"/>
	<path class="st10" d="M170.14,215.22l0.17,0.33L170.14,215.22z"/>
	<path class="st2" d="M199.56,177.2l-0.29-0.23L199.56,177.2z"/>
	<polygon class="st10" points="180.77,171.22 180.75,171.04 180.94,171.03 	"/>
	<path class="st6" d="M176.05,172.46l0.28-0.07L176.05,172.46z"/>
	<path class="st12" d="M175.61,182.8l0.39,0.02L175.61,182.8z"/>
	<path class="st7" d="M69.55,160.22l-0.21,0.31L69.55,160.22z"/>
	<path class="st8" d="M205.46,112.98l0.23,0.29L205.46,112.98z"/>
	<path class="st6" d="M175.39,172.61l0.28-0.07L175.39,172.61z"/>
	<path class="st2" d="M161.35,226.57l-0.25,0.26L161.35,226.57z"/>
	<path class="st2" d="M186.78,145.07l0.21-0.19L186.78,145.07z"/>
	<polygon class="st9" points="145.39,175.34 145.37,175.22 145.65,175.25 145.64,175.38 	"/>
	<path class="st2" d="M161.09,226.84l-0.23,0.16L161.09,226.84z"/>
	<polygon class="st7" points="195.44,166.26 195.4,165.98 195.55,166.12 	"/>
	<path class="st15" d="M79.06,204.72l0.13-0.15L79.06,204.72z"/>
	<polygon class="st10" points="168.74,178.53 168.57,178.55 168.64,178.37 	"/>
	<path class="st6" d="M206.15,113.81l0.07,0.13L206.15,113.81z"/>
	<path class="st4" d="M177.94,107.15l-0.12-0.04L177.94,107.15z"/>
	<polygon class="st2" points="218.76,148.51 218.9,148.37 218.9,148.51 	"/>
	<path class="st2" d="M219.05,147.85l0.06-0.18L219.05,147.85z"/>
	<path class="st3" d="M151.67,185.5l-0.02,0.13L151.67,185.5z"/>
	<polygon class="st1" points="108.14,221.81 112.57,229.26 113.52,233.44 113.9,233.81 113.88,233.8 119.63,251.09 119.6,252.08 
		119.38,252.08 105.86,233.47 104.59,232.24 97.08,221.35 96.13,221.17 95.9,221.31 95.49,221.16 95.11,219.94 95.61,220.24 
		96.66,220.34 100.09,213.8 100.91,213.28 	"/>
	<polygon class="st1" points="71.87,160.8 71.98,160.74 72.13,160.78 71.9,161.16 70.05,162.56 67.5,166.58 65.78,174.71 
		65.96,176.26 67.31,179.22 67.34,179.41 68.69,182.68 68.79,182.81 75.61,201.24 74.28,202.67 73.34,205.81 72.86,206.28 
		72.27,205.74 65,176.22 64.39,175.22 63.88,172.24 68.51,163.61 68.73,162.93 	"/>
	<polygon class="st1" points="209.57,160.73 212.82,162.95 217.96,172.96 217.44,174.95 216.38,177.08 212.46,193.95 212.26,194.3 
		209.08,205.91 208.67,206.28 208.25,205.91 207.03,202.19 206.27,201.64 205.91,201.25 206.2,199.5 206.64,198.3 206.87,197.97 
		207.45,196.29 207.56,196.16 208.66,193.36 208.76,193.21 208.8,192.96 208.9,192.83 209.06,192.29 209.16,192.15 209.2,191.89 
		209.3,191.76 213.56,180.81 213.56,180.81 214,179.76 214.53,179.13 215.41,177.41 215.56,176.7 215.51,172.45 213.23,164.69 
		209.43,160.78 	"/>
	<path class="st6" d="M237.71,127.3l0.17,0.05L237.71,127.3z"/>
	<polygon class="st13" points="132.17,55.86 134.72,51.04 135.37,50.89 140.04,57.98 140.72,60.25 135.27,65.49 135.23,65.75 
		131.98,69.65 130.98,69.59 128.46,63.31 128.09,63.19 127.76,63.78 131.38,72.03 130.67,72.37 123.17,73.1 121.82,73.87 
		121.26,73.48 121.1,72.52 125.03,63.87 125.56,63.4 127.71,62.72 128.37,62.16 131.49,57.55 	"/>
	<polygon class="st13" points="141.11,60.14 142.28,56.46 143.69,54.82 144.88,52.76 145.05,52.56 145.53,51.63 146.5,50.72 
		146.72,50.83 153.17,62.24 153.83,62.7 154.87,62.89 156.04,63.75 160.38,72.43 160.46,73.37 159.97,73.66 158.46,73.09 
		150.04,72.16 153.79,63.88 153.32,63.19 152.96,63.64 151.23,68.38 150.36,69.87 149.82,69.97 	"/>
	<polygon class="st7" points="141.11,60.14 142.65,62.24 145.87,65.18 146.19,65.6 146.18,65.75 145.29,66.46 142.31,74.96 
		142.06,75.37 141.99,74.84 142.04,74.72 141.98,73.92 141.31,73.95 140.8,71.45 140.57,72 140.34,73.44 139.53,73.94 139.44,74.69 
		139.61,75.12 139.43,75.43 139.25,75.21 136.41,66.78 135.36,65.74 136.31,64.73 136.69,64.14 140.72,60.25 	"/>
	<polygon class="st9" points="160.46,73.37 160.38,72.43 156.04,63.75 154.87,62.89 153.83,62.7 153.17,62.24 149.25,55.88 
		150.25,55.87 151.13,56.25 153.04,57.9 153.56,57.89 153.85,57.7 153.87,59.05 154.28,58.82 154.4,58.6 155.56,59.72 158.6,65.22 
		158.39,65.89 163.38,71.1 161.69,75.37 161.38,75.15 160.55,73.82 	"/>
	<polygon class="st9" points="132.17,55.86 131.49,57.55 128.37,62.16 127.71,62.72 125.56,63.4 125.03,63.87 121.1,72.52 
		121.26,73.48 120.94,73.79 120.22,74.94 119.7,75.38 118.16,70.83 118.79,70.39 123.02,66.02 122.94,65.22 125.92,59.8 
		127.1,58.65 127.3,58.87 127.68,59.06 127.74,58.7 127.67,57.72 128,57.9 128.52,57.89 130.47,56.18 131.17,55.87 	"/>
	<polygon class="st9" points="111.48,70.83 110.52,68.05 110.8,58.22 110.68,57.81 110.42,58.29 109.63,65.73 109.34,66.17 
		108.81,65.23 109.08,64.45 109.87,57.19 110.65,55.65 110.69,55.6 112.27,57.35 111.89,58.47 113.65,63.2 114.9,64.1 112.01,70.16 
			"/>
	<polygon class="st9" points="170.59,69.09 170,70.74 169.69,70.42 166.57,64.04 167.75,63.34 169.57,58.05 169.17,57.36 
		170.73,55.6 171.67,57.55 172.61,65.29 172.19,66.14 171.81,65.61 170.88,57.78 170.73,58.38 	"/>
	<polygon class="st6" points="122.94,65.22 123.02,66.02 118.79,70.39 118.16,70.83 115.96,64.84 115.95,64.26 116.68,64.11 
		117.32,63.86 118.64,64.81 119.03,65.35 119.88,65.78 121.2,65.85 	"/>
	<polygon class="st6" points="163.38,71.1 158.39,65.89 158.6,65.22 161.91,65.74 164.18,64.02 165.48,64.39 165.44,65.03 	"/>
	<polygon class="st6" points="172.61,65.29 171.67,57.55 170.73,55.6 171.43,55.67 177.29,57.59 176.15,57.82 175.66,58.02 
		173.99,61.08 174.12,62.99 	"/>
	<polygon class="st6" points="110.69,55.6 110.65,55.65 109.87,57.19 109.08,64.45 108.81,65.23 107.46,62.97 107.59,62.16 
		107.23,59.21 106.79,58.65 104.47,57.87 104.17,57.63 110.12,55.65 	"/>
	<polygon class="st2" points="117.32,63.86 116.68,64.11 115.95,64.26 114.9,64.1 113.65,63.2 111.89,58.47 112.27,57.35 
		116.92,63.08 	"/>
	<polygon class="st2" points="165.48,64.39 164.18,64.02 169.17,57.36 169.57,58.05 167.75,63.34 166.57,64.04 166.04,64.02 	"/>
	<polygon class="st4" points="104.17,57.63 104.47,57.87 106.79,58.65 107.23,59.21 107.59,62.16 107.46,62.97 104.01,59.38 
		103.75,58.78 	"/>
	<polygon class="st4" points="174.12,62.99 173.99,61.08 175.66,58.02 176.15,57.82 177.29,57.59 177.65,59.07 177.54,59.35 	"/>
	<polygon class="st3" points="177.54,59.35 177.65,59.07 177.67,59.31 	"/>
	<path class="st3" d="M179.56,58.42l-0.16,0.1L179.56,58.42z"/>
	<polygon class="st14" points="102.14,86.97 88.65,88.75 86.93,90.19 82.35,91 72,96.33 63.86,105.33 64.06,104.3 68.03,94.16 
		67.8,92.86 66.98,92.44 64.23,92.01 63.55,92.12 62.88,92.55 62.33,92.71 62.38,92.58 62.45,92.52 62.38,92.51 62.39,92.59 
		55.41,93.76 54.38,93.65 54.2,93.06 58.8,89.34 58.94,88.53 58.04,87.96 56.58,87.92 52.74,86.83 52.05,86.37 52.4,85.35 
		59.32,83.2 59.46,83.11 60.33,82.83 60.57,82.11 59.19,79.81 57.59,78.11 56.99,76.64 56.78,75.55 58.26,73.95 58.38,73.36 
		58.51,73.34 62.12,71.49 62.39,71.07 63.2,71.34 64.73,72.22 64.81,76.06 64.49,76.89 69.82,86.86 69.99,86.91 73.36,90.88 
		68.68,94.84 68.3,95.63 69.08,95.66 86.13,87.2 85.25,86.66 85.11,86.4 85.33,86.28 108.22,85.56 109.38,85.84 108.76,86.34 
		102.72,86.69 	"/>
	<polygon class="st8" points="67.77,31.92 68.36,31.36 69.04,29.62 69.45,29.23 69.77,29.67 71.98,36.15 73.77,38.01 73.82,38.49 
		68.74,44.6 68.99,45.31 74.58,49.54 75.49,51.21 76.77,63.32 75.99,71.23 75.69,71.73 73.68,73.25 73.91,73.76 74.97,73.81 
		74.73,74.01 72.78,74.3 72.13,62.17 72.41,61.46 73.69,63.24 74.52,63.18 74.59,62.56 70.99,57.12 69.19,51.99 69.34,51.25 
		67.72,45.99 67.23,45.42 67.04,45.45 66.22,46.52 65.14,49.82 64.55,49.72 64.26,48.94 63.93,45.6 	"/>
	<polygon class="st0" points="63.93,45.6 64.26,48.94 64.55,49.72 65.14,49.82 65.04,55.44 65.32,56.04 65.42,55.33 65.34,55.01 
		65.27,53.9 66.66,46.74 67.03,46.33 67.29,46.75 68.42,50.78 69.19,51.99 70.54,56.23 74.59,62.56 74.52,63.18 73.69,63.24 
		70.02,58.16 70.08,63.19 69.88,63.7 69.86,65.36 69.64,65.94 69.21,65.54 67.7,62.66 66.22,60.73 65.84,60.69 64.27,56.31 
		64.53,56.26 64.59,55.85 63.79,54.97 63.08,52.26 63.96,45.66 	"/>
	<polygon class="st3" points="64.27,56.31 71.73,72.97 72.66,73.77 72.78,74.3 72.55,74.46 63.17,66.34 62.93,65.88 61.97,61.09 
		62.05,60.42 61.85,60 61.83,58.84 62.7,55.31 63.3,55.14 	"/>
	<polygon class="st5" points="61.97,61.09 62.51,63.09 62.54,64.79 62.77,64.7 62.93,65.88 63.17,66.34 72.55,74.46 72.03,75.08 
		69.49,74.82 69.19,74.55 63.2,71.34 62.94,70.9 60.84,68.69 60.28,67.6 59.48,62.65 61.04,61.76 61.43,61.06 	"/>
	<polygon class="st8" points="62.39,71.07 62.12,71.49 58.51,73.34 58.38,73.36 55.63,67.93 55.89,67.56 58.66,68.03 59.7,68.41 
		60.24,68.75 	"/>
	<polygon class="st14" points="60.78,97.78 62.87,98.08 63.03,98.26 62.88,98.47 49.7,102.43 48.83,102.46 48.51,102.07 	"/>
	<polygon class="st12" points="62.39,71.07 60.24,68.75 59.7,68.41 58.05,62.31 57.91,62.08 57.9,61.76 58.2,61.74 59.48,62.65 
		60.28,67.6 60.84,68.69 62.94,70.9 63.2,71.34 	"/>
	<polygon class="st14" points="194.6,90.17 194.56,90.17 194.52,90.18 193.16,89.2 190.83,88.21 172.85,86.34 172.05,85.87 
		172.92,85.66 196.22,86.29 196.42,86.43 196.3,86.64 195.37,87.21 211.78,95.53 213.31,95.69 212.94,94.95 208.2,91.01 
		216.86,77.63 216.89,72.15 219.17,70.94 219.49,71.53 223.17,73.36 223.29,73.95 224.65,75.47 224.65,75.54 224.52,76.68 
		224.09,77.8 220.86,82.26 221.02,82.76 227.5,84.75 227.84,84.96 229.09,85.31 229.61,85.92 229.11,86.7 225.09,87.82 
		223.59,87.96 222.38,88.82 222.47,89.18 227.11,92.66 227.27,93.53 226.56,93.79 219.47,92.58 219.16,92.59 219.17,92.51 
		219.1,92.52 219.18,92.58 219.33,92.87 218.18,92.27 217.14,92.03 214.27,92.48 213.66,92.89 213.34,93.22 213.26,93.67 
		217.52,104.52 217.54,105.29 213.81,100.32 207.18,94.83 197.85,90.67 	"/>
	<polygon class="st8" points="206.07,73.79 207.66,73.81 207.93,73.47 207.63,73.13 206.19,72.05 205.43,70.61 205.05,56.04 
		205.97,51.22 207.11,49.34 212.52,45.31 212.75,44.55 207.89,38.66 207.87,37.88 209.32,36.32 209.8,35.45 211.77,29.59 
		212.1,29.23 212.47,29.58 213.08,31.26 213.79,31.98 214.52,33.42 217.28,45.07 217.16,49.37 216.25,49.71 215.43,46.94 
		214.69,45.58 213.94,45.69 212.18,51.33 212.35,52.02 210.04,58.38 209.51,58.75 206.91,62.68 207.19,63.38 207.84,63.24 
		209.03,61.48 209.3,61.79 208.76,74.3 	"/>
	<polygon class="st0" points="210.04,58.38 212.35,52.02 212.8,51.3 214.25,46.68 214.5,46.33 214.83,46.69 216.1,55.75 
		216.25,56.07 216.49,55.74 216.25,49.71 217.16,49.37 217.28,45.07 216.49,41.57 217.28,43.82 218.33,53.72 217,55.81 
		217.03,56.28 216.33,59.71 215.76,60.55 215.12,60.97 211.91,65.95 211.7,65.56 211.3,60.53 211.49,58.58 211.46,58.22 
		211.11,58.43 210.65,58.99 	"/>
	<polygon class="st3" points="215.76,60.55 216.33,59.71 217.03,56.28 218.66,54.97 219.89,59.2 219.85,59.7 219.53,60.36 
		219.58,61.09 218.04,66.71 217.42,67.69 209.02,74.66 208.76,74.3 208.78,73.78 209.38,73.54 211.42,68.96 211.55,68.82 	"/>
	<polygon class="st5" points="219.06,62.96 219.58,61.09 220.15,61.11 220.54,61.8 221.96,62.67 221,67.43 220,69.79 219.17,70.94 
		212.05,74.81 209.62,75.08 209.02,74.66 217.42,67.69 218.04,66.71 218.78,64.03 218.99,64.88 	"/>
	<polygon class="st8" points="219.17,70.94 220,69.79 221.85,68.41 222.9,68.03 225.67,67.56 225.91,67.99 223.17,73.36 
		219.49,71.53 	"/>
	<polygon class="st14" points="233.04,102.07 232.53,102.47 218.68,98.52 218.52,98.25 218.76,98.06 220.77,97.66 220.86,97.82 
		231.15,101.78 	"/>
	<polygon class="st12" points="221.85,68.41 220,69.79 221,67.43 221.96,62.67 222.53,62.21 223.39,61.74 223.66,62.03 
		223.53,62.26 221.98,67.16 	"/>
	<polygon class="st3" points="165.48,64.39 166.04,64.02 166.57,64.04 169.69,70.42 170,70.74 169.98,71.12 170.17,71.66 
		177.36,74.67 177.05,75.45 165.23,84.74 164.98,85.1 164.33,84.42 161.24,77.22 165.44,65.03 	"/>
	<polygon class="st11" points="195.52,82.15 196.13,82.55 196.78,81.96 196.3,80.48 198.6,74.67 199.2,73.8 200.19,73.53 
		204.39,73.78 204.62,78.95 205.74,80.45 206.14,81.51 205.57,82.84 202.78,86.3 198.86,84.31 197.8,84.3 196.01,83.88 
		195.16,82.31 	"/>
	<polygon class="st12" points="205.57,82.84 206.14,81.51 205.74,80.45 204.62,78.95 204.39,73.78 208.76,74.3 209.02,74.66 
		209.62,75.08 212.05,74.81 216.24,76.07 214.92,77.16 213.4,77.62 208.87,77.1 208.64,76.71 208.8,76.42 208.81,75.92 208.26,75.8 
		207.73,76.34 207.96,77.62 209.93,80.74 211.71,86.72 208.2,91.01 206.94,90.08 	"/>
	<polygon class="st3" points="197.02,55.35 193.37,58.3 193.22,58.98 193.77,59.08 198.3,58.57 192.22,62.42 191.72,62.53 
		187.12,64.62 187.14,64.68 185.56,64.65 186.23,62.78 186.21,59.85 186.53,58.87 188.89,56.08 189.16,55.9 192.53,54.67 
		194.38,54.4 196.5,54.9 	"/>
	<polygon class="st0" points="197.02,55.35 196.5,54.9 194.38,54.4 192.53,54.67 189.16,55.9 188.89,56.08 186.53,58.87 
		186.21,59.85 186.23,62.78 185.56,64.65 183.71,64.8 184.68,60.37 188.31,54.07 189.13,53.67 191.33,51.75 192.38,51.72 
		192.71,52.04 193.42,52.14 193.95,51.88 194.87,52.55 201.05,52.55 200.75,53.02 	"/>
	<polygon class="st12" points="183.71,64.8 187.14,64.68 187.65,65.09 191.98,64.29 192.42,63.94 191.71,63.13 193.19,63.05 
		195.85,63.46 196.1,64.3 193.06,64.56 189.17,65.63 188.95,66.48 191.27,69.14 192.97,69.6 193.69,70.17 191.19,71.94 
		189.02,72.09 186.94,71.37 186.63,70.35 188.13,66.35 187.8,66.31 184.22,67.22 183.5,66.04 	"/>
	<polygon class="st9" points="164.98,85.1 165.23,84.74 177.05,75.45 177.36,74.67 180.61,74.13 180.76,74.25 182.67,74.27 
		182.89,74.06 186.34,74.56 184.87,75.5 184.74,75.5 179.49,76.69 178.9,77.04 177.94,77.17 175.67,77.9 167.17,84.96 167.56,85.12 
		169.02,85.12 169.72,85.52 169.67,85.75 168.88,85.92 165.82,85.5 	"/>
	<polygon class="st3" points="193.69,70.17 192.97,69.6 191.27,69.14 188.95,66.48 189.17,65.63 193.06,64.56 196.1,64.3 
		196.85,64.55 196.41,65.4 193.23,67.3 198.15,67.59 197.34,68.43 195.52,68.81 	"/>
	<polygon class="st3" points="195.52,82.15 195.16,82.31 185.02,81.37 183.33,79.45 183.54,78.91 186.22,78.96 194.7,80.9 	"/>
	<polygon class="st12" points="193.95,51.88 193.42,52.14 192.71,52.04 192.38,51.72 191.33,51.75 189.13,53.67 188.72,53.83 
		189.97,52.17 192.3,50.43 194.38,48.16 194.75,47.33 197.3,46.38 199.92,46.26 200.95,45.87 203.41,46.18 202.8,46.63 
		194.41,50.63 194.09,51.1 	"/>
	<polygon class="st10" points="186.34,74.56 184.74,74.19 185.16,68.06 184.78,67.5 184.22,67.22 187.8,66.31 188.13,66.35 
		186.63,70.35 186.94,71.37 189.02,72.09 191.19,71.94 190.11,72.67 187.18,73.87 186.63,74.53 	"/>
	<polygon class="st10" points="194.75,47.33 194.38,48.16 192.3,50.43 189.97,52.17 188.72,53.83 188.31,54.07 189.62,51.56 
		193.97,47.63 	"/>
	<polygon class="st2" points="170.59,69.09 170.73,58.38 170.88,57.78 171.81,65.61 172.19,66.14 	"/>
	<polygon class="st10" points="191.71,63.13 192.42,63.94 191.98,64.29 187.65,65.09 187.14,64.68 187.12,64.62 188.28,64.49 
		191.55,62.95 	"/>
	<polygon class="st0" points="191.55,62.95 188.28,64.49 187.12,64.62 191.72,62.53 192.22,62.42 	"/>
	<polygon class="st5" points="196.85,64.55 196.1,64.3 195.85,63.46 197.49,63.59 197.92,63.75 197.94,64.12 	"/>
	<polygon class="st2" points="182.89,74.06 182.67,74.27 180.76,74.25 180.61,74.13 	"/>
	<path class="st12" d="M175.44,73.58l-0.84-0.36L175.44,73.58z"/>
	<path class="st8" d="M205.85,73.79l-0.17-0.01L205.85,73.79z"/>
	<polygon class="st3" points="114.9,64.1 115.95,64.26 115.96,64.84 119.7,75.38 119.73,75.9 117.86,83.18 116.94,84.78 
		116.46,85.1 104.47,75.52 104.14,74.69 111.2,71.68 111.5,71.03 111.48,70.83 112.01,70.16 	"/>
	<polygon class="st11" points="77.05,73.78 81.5,73.53 82.82,74.55 85.28,80.7 85.12,81.21 84.9,81.36 84.65,82.09 85.58,82.46 
		86.15,82.25 86.27,82.31 86.4,82.69 85.82,83.6 78.68,85.92 78.19,85.64 75.88,82.86 75.72,82.29 75.31,81.45 75.79,80.42 
		76.36,80.25 76.77,79.76 77.14,74.02 	"/>
	<polygon class="st12" points="77.05,73.78 77.14,74.02 76.77,79.76 76.36,80.25 75.79,80.42 75.31,81.45 75.72,82.29 75.88,82.86 
		75.49,83.98 75.66,84.67 75.7,85.58 74.8,89.68 73.36,90.88 69.99,86.91 70.25,84.52 71.72,80.47 73.84,77.22 73.92,77 
		73.69,76.17 72.74,75.84 72.77,76.5 72.83,76.62 72.6,77.1 70.33,77.87 69.56,77.95 68.04,77.76 66.54,77.07 65.31,76.06 
		65.45,75.93 69.2,74.96 69.49,74.82 72.03,75.08 72.55,74.46 72.78,74.3 74.73,74.01 74.97,73.81 	"/>
	<polygon class="st3" points="89.22,62.41 83.69,59.11 83.11,58.56 88.04,59.09 88.31,58.6 88.1,58.27 85.37,55.85 84.51,55.39 
		85.07,54.89 86.57,54.34 86.83,54.3 92.02,55.8 92.76,56.3 95.21,59.69 95.47,60.29 95.79,63.99 95.48,64.72 94.4,64.7 
		92.71,64.08 92.47,63.79 89.6,62.48 	"/>
	<polygon class="st0" points="95.48,64.72 95.79,63.99 95.47,60.29 95.21,59.69 92.76,56.3 92.02,55.8 86.83,54.3 86.57,54.34 
		85.07,54.89 84.51,55.39 80.85,53.08 80.48,52.68 81.01,52.56 86.74,52.56 87.54,52.04 87.98,52.12 88.87,51.98 89.11,51.75 
		90.18,51.72 94.73,56.33 97.23,61.71 97.83,64.79 	"/>
	<polygon class="st12" points="95.48,64.72 97.83,64.79 98.02,66.23 97.21,67.23 96.99,67.11 93.85,66.35 93.38,66.4 94.87,70.4 
		94.76,71.08 93.89,72.08 92.95,72.38 89.97,71.81 87.74,70.16 88.65,69.53 90.22,69.17 92.61,66.43 92.66,65.89 91.43,65.1 
		90.06,64.88 89.43,64.57 85.33,64.29 85.6,63.47 88.26,63.08 89.86,63.16 89.4,63.49 89.1,63.86 89.46,64.29 93.95,65.13 
		94.4,64.7 	"/>
	<polygon class="st12" points="93.72,54.96 90.18,51.72 89.11,51.75 88.87,51.98 87.98,52.12 87.54,52.04 86.31,50.17 77.86,46.16 
		80.49,45.87 81.8,46.24 84.22,46.4 86.53,47.11 90.45,50.05 91.96,51.78 	"/>
	<polygon class="st9" points="104.14,74.69 104.47,75.52 116.46,85.1 115.75,85.5 112.1,85.89 111.78,85.52 112.13,85.16 
		114.37,84.99 104.6,76.86 103.31,76.71 102.59,77.01 100.64,75.81 100.01,75.62 96.89,75.51 95.38,74.69 94.81,74.57 94.93,74.43 
		101.73,74.05 	"/>
	<polygon class="st3" points="90.06,64.88 91.43,65.1 92.66,65.89 92.61,66.43 90.22,69.17 88.65,69.53 87.74,70.16 85.94,68.78 
		84.18,68.43 83.38,67.6 88.12,67.33 85.12,65.4 84.67,64.55 85.33,64.29 87.86,64.58 88.26,64.82 89.55,64.93 	"/>
	<polygon class="st3" points="86.27,82.31 86.15,82.25 86.05,82.17 86,81.9 86.63,80.97 92.41,79.24 97.88,78.9 98.11,79.55 
		96.54,81.4 	"/>
	<polygon class="st10" points="96.83,74.29 94.93,74.43 94.47,73.91 90.19,72.04 89.97,71.81 92.95,72.38 93.89,72.08 94.76,71.08 
		94.87,70.4 93.38,66.4 93.85,66.35 96.99,67.11 97.21,67.23 96.78,67.5 96.36,68.08 	"/>
	<polygon class="st2" points="109.34,66.17 109.63,65.73 110.42,58.29 110.68,57.81 110.8,58.22 110.52,68.05 	"/>
	<polygon class="st10" points="94.4,64.7 93.95,65.13 89.46,64.29 89.1,63.86 89.4,63.49 89.86,63.16 89.88,62.94 90.31,63.23 	"/>
	<polygon class="st5" points="85.33,64.29 84.67,64.55 83.88,64.26 83.49,63.97 83.83,63.64 85.6,63.47 	"/>
	<polygon class="st5" points="92.71,64.08 90.31,63.23 89.22,62.41 89.6,62.48 92.47,63.79 	"/>
	<polygon class="st8" points="106.81,62.44 107.46,62.97 107.88,63.76 	"/>
	<path class="st8" d="M107.93,63.84l0.22,0.44L107.93,63.84z"/>
	<path class="st12" d="M92.67,79.2l-0.26,0.04L92.67,79.2z"/>
	<path class="st8" d="M106.3,61.87l0.25,0.28L106.3,61.87z"/>
	<polygon class="st0" points="86.05,82.17 86.15,82.25 86.02,82.3 	"/>
	<path class="st8" d="M75.36,73.79l-0.2,0.01L75.36,73.79z"/>
	<polygon class="st12" points="173.27,221.83 173.6,220.49 175.51,216.55 178.51,212.6 179.57,212.4 180.63,213.26 173.74,221.47 	
		"/>
	<polygon class="st0" points="166.6,235.8 167.08,234.52 167.54,233.94 166.81,235.81 	"/>
	<path class="st0" d="M167.66,233.81l0.12-0.11L167.66,233.81z"/>
	<path class="st0" d="M167.53,233.95l0.14-0.15L167.53,233.95z"/>
	<polygon class="st0" points="114.74,235.81 113.88,233.8 114.47,234.53 114.96,235.8 	"/>
	<polygon class="st4" points="153.8,164.3 141.05,144.27 140.73,144 140.45,144.33 139.69,146.88 128.03,164.11 127.58,164.34 
		127.37,163.9 133.48,143.25 133.54,142.49 132.57,138.89 129.51,135.9 127.91,135.03 127.63,134.73 129.84,121.47 129.52,115.28 
		128.1,111.64 128.06,111.38 128.42,111.64 129.2,112.48 129.73,113.91 130.95,115.32 131.27,116.15 131.72,121.26 140.5,143.06 
		141.01,143.4 141.37,142.96 150.19,119.11 150.23,116.03 150.44,115.44 151.96,113.68 152.34,112.48 153.27,111.54 153.27,111.89 
		151.93,115.62 151.56,119.91 153.9,134.43 153.48,135.04 151.99,135.83 149.14,138.43 148.84,138.93 148.06,142.23 148.17,143.57 
		154.07,164.27 	"/>
	<path class="st1" d="M95.21,115.77l-0.36-0.1l-0.98-0.52l10.58,1.39l4.05-1.92l1.57-0.21l7.05,2.74l0.28,0.26l5.98,10.41l0.13,0.14
		l0.72,2.65l2.34,4.3l-0.07,0.39l-2.28,1.71l-0.7,0.01l-3.37-5.05l-4.31-2.01l-4.24-0.85l-4.21-2.39l-6.78-7.47l-3.94-2.92
		L95.21,115.77L95.21,115.77z M115.25,121.83l-0.57,1.28l-1.93-0.64l-0.58-0.57l-0.68-1.81l-0.93-0.55l-1.96,0.29l-0.37,0.32
		l0.22,0.3l0.1,0.59l-0.34,1.05l0.3,1.04l1.87,2.13l0.61,0.46l3.52,0.49l0.6-0.44l0.51-0.92l0.48,0.51l0.61,0.29l1.65-1.46
		l0.11-0.59l-1.45-3.29l-0.36-0.46l-0.47,0.06L115.25,121.83L115.25,121.83z"/>
	<path class="st1" d="M186.77,115.07l0.78,0.11l-0.56,0.55l-3.09,1.16l-4.88,3.91l-5.05,6.11l-1.38,1.01l-7.11,2.04l-3.38,1.66
		l-2.37,2.32l-1.69,2.94H157l-2-1.59l-0.07-0.39l2.28-4.17l-0.04-0.28l0.03-0.39l1.04-3.17l0.2-0.15l5.43-9.08l0.48-0.52l7.26-2.9
		l3.9,1.85l3.71,0.51l1.56-0.15l4.25-1.25L186.77,115.07L186.77,115.07z M166.2,121.81l-0.77-1.67l-0.69-0.14l-1.88,3.21l0.05,0.47
		l1.54,1.89l0.97-0.19l0.56-0.41l0.43,0.83l0.8,0.45l2.25-0.17l1.34-0.5l0.67-0.55l0.85-1.16l0.85-0.74l0.2-0.45l-0.55-1.9
		l0.54-0.63l-0.37-0.33h-0.92l-0.84-0.2l-1.23,0.44l-1.74,2.49l-0.97,0.54h-0.4L166.2,121.81L166.2,121.81z"/>
	<polygon class="st7" points="129.2,112.48 128.42,111.64 128.06,111.38 121.75,103.21 121.95,102.42 117.77,90.29 117.21,89.63 
		116.6,87.67 117.39,86.89 125.99,89.91 126.59,90.55 127.82,94.06 128.32,100.46 128.69,100.45 128.82,99.94 125.78,80.56 
		126.33,81 126.56,81.87 132.03,91.92 132.45,95.64 130.94,101.67 130.8,101.89 130.39,102.05 129.73,100.76 129.25,100.9 
		129.23,101.37 128.64,103.24 129.76,111.77 	"/>
	<polygon class="st7" points="153.27,111.54 152.34,112.48 151.77,111.68 152.91,103.03 152.32,101.27 152.32,101 152.08,100.63 
		151.69,100.8 151.37,101.65 151.09,102.05 150.61,101.8 149.26,96.76 149.27,93.76 149.6,92.54 149.47,91.88 155.16,81.22 
		155.61,80.67 152.71,98.11 152.8,100.43 153.04,100.64 153.24,100.35 153.64,93.75 154.32,91.96 155.57,90.49 157.64,89.01 
		164.03,86.92 164.62,86.89 164.96,87.44 164.3,89.53 163.81,90.08 159.61,102.17 159.83,103.16 	"/>
	<polygon class="st0" points="186.96,116.04 190.13,123.24 190.21,123.69 189.62,124.63 190.2,126.46 189.66,127.91 186.39,130.03 
		185.82,130.86 179.56,134.66 179.2,134.77 178.74,134.38 170.54,133.48 175.91,135.21 176.55,135.82 177.02,136.1 175.4,137.9 
		175.26,138.17 174.61,138.83 173.84,140.22 173.33,143.58 167.01,138.18 166.88,137.62 167.53,134.03 168.22,133.24 171.14,132.75 
		173.41,132.77 174.22,132.52 177.71,129.45 184.67,117.13 185.37,116.49 	"/>
	<polygon class="st0" points="91.32,123.67 94.35,116.32 94.56,116.07 95.41,116.38 96.99,117.48 104.21,130.11 105.08,130.89 
		108.42,132.57 109.25,132.77 112.7,132.9 113.91,133.93 114.54,137.12 114.02,138.73 108.46,143.47 108.22,143.58 107.26,139.45 
		105.88,137.42 104.69,136.34 105.45,135.25 110.62,133.68 110.96,133.45 110.65,133.43 102.96,134.44 102.53,134.8 95.56,130.95 
		95.57,130.39 91.7,127.88 91.34,126.35 91.9,124.66 	"/>
	<polygon class="st4" points="151.46,168.58 149.93,168.11 149.59,167.87 146.2,167.61 145.65,167.73 132.99,167.98 129.75,169.31 
		130.2,168.64 133.74,166.41 134.58,165.58 141.2,155.65 141.64,155.58 151.68,168.51 	"/>
	<polygon class="st12" points="123.52,127.95 123.39,127.81 117.41,117.4 117.13,117.14 110.08,114.4 108.51,114.61 106.57,115.42 
		106.76,114.64 107.56,114.16 107.88,113.36 107.3,112.89 106.71,112.87 106.18,112.5 107.16,112.35 111.47,113.07 116.27,115.62 
		116.34,115.87 116.96,116.16 117.08,115.58 115.69,110.98 115.89,110.48 115.92,110.58 119.64,116.93 120.16,117.43 123.35,119.32 
		128.46,121.01 128.93,121.3 123.48,126.72 123.43,127.21 	"/>
	<polygon class="st12" points="173.29,114.95 171.64,114.24 164.37,117.14 163.89,117.66 158.46,126.74 158.25,126.9 152.84,121.6 
		152.91,121.06 160.75,117.98 161.64,117.23 165.66,110.48 165.9,110.65 164.32,115.68 164.93,116.04 165.68,115.43 165.68,115.43 
		166.09,115.16 166.18,115.13 167.58,114.24 172.87,112.37 175.24,112.5 174.88,112.87 174.21,112.88 173.59,113.48 173.92,114.13 
		174.72,114.6 175.08,115.3 173.07,114.49 	"/>
	<polygon class="st0" points="117.62,130.78 120.16,131.96 123.53,137.01 122.44,137.57 121.53,137.67 120.74,137.33 119.51,136.16 
		118.32,133.78 	"/>
	<polygon class="st0" points="155.39,123.82 158.25,126.9 157.21,130.06 157.18,130.45 156.67,130.87 155.41,130.45 154.71,126.56 
		154.31,125.73 154.25,124.23 	"/>
	<polygon class="st0" points="123.52,127.95 123.43,127.21 123.48,126.72 126.14,123.8 127.37,124.56 126.03,130.6 125.04,131.03 
		124.23,130.6 	"/>
	<polygon class="st0" points="158.05,136.89 159.73,133.96 162.1,131.63 163.91,130.73 163.25,133.9 162.92,134.46 160.41,137.29 
		160.05,137.58 159.09,137.57 	"/>
	<polygon class="st14" points="105.88,137.42 107.26,139.45 108.22,143.58 107.76,143.87 105.89,143.89 92.92,140.25 93.8,140.12 
		106.99,143.16 107.41,142.62 105.9,137.69 	"/>
	<polygon class="st14" points="173.33,143.58 173.84,140.22 174.61,138.83 175.26,138.17 174.34,140.91 174.08,142.74 
		174.54,143.17 187.97,140.09 188.68,140.24 187.57,140.78 173.79,143.86 	"/>
	<polygon class="st2" points="159.83,103.16 159.61,102.17 163.81,90.08 164.3,89.53 162.38,97.05 162.3,101.24 160.28,102.97 	"/>
	<polygon class="st12" points="120,158.14 115.89,151.23 115.61,150.28 115.97,150.14 124.37,161.52 124.35,161.96 123.95,161.83 	
		"/>
	<polygon class="st12" points="165.78,149.96 165.83,150.69 161.62,157.83 161.5,158.21 157.26,162.03 157.41,161.13 	"/>
	<polygon class="st2" points="117.21,89.63 117.77,90.29 121.95,102.42 121.75,103.21 121.27,102.97 	"/>
	<polygon class="st10" points="177.43,123.18 179.02,120.8 179.79,120.21 179.76,120.4 177.6,123.1 	"/>
	<path class="st4" d="M160.28,102.97l1.67-1.4L160.28,102.97z"/>
	<polygon class="st6" points="151.51,168.61 151.68,168.51 152.94,170.31 151.46,168.58 	"/>
	<path class="st8" d="M172.6,127.93l1.37-1.02L172.6,127.93z"/>
	<path class="st4" d="M116.27,111.17l-0.35-0.59L116.27,111.17z"/>
	<path class="st5" d="M120.68,158.8l0.4,0.41L120.68,158.8z"/>
	<path class="st5" d="M122.06,160.11l0.26,0.25L122.06,160.11z"/>
	<path class="st4" d="M161.97,101.55l0.2-0.19L161.97,101.55z"/>
	<path class="st4" d="M129.18,169.84l-0.2,0.18L129.18,169.84z"/>
	<path class="st6" d="M153.23,170.82l-0.1-0.16L153.23,170.82z"/>
	<path class="st4" d="M116.42,111.42l-0.11-0.16L116.42,111.42z"/>
	<polygon class="st3" points="73.36,90.88 80.84,85.19 82.1,84.61 83.1,84.82 88.26,84.6 89.14,85.91 89.73,86.25 85.33,86.28 
		85.11,86.4 85.25,86.66 86.13,87.2 69.08,95.66 68.3,95.63 68.68,94.84 	"/>
	<polygon class="st14" points="86.64,84.68 83.1,84.82 82.1,84.61 82.58,84.32 85.82,83.6 86.4,82.69 86.27,82.31 96.54,81.4 
		96.04,82.15 	"/>
	<polygon class="st14" points="126.33,81 124.86,79.59 122.55,78.31 122.28,75.82 122.96,75.11 123.95,76.63 124.1,77.07 
		124.8,78.18 126.45,79.83 126.56,80.96 	"/>
	<polygon class="st7" points="122.96,75.11 122.28,75.82 122.55,78.31 120.41,77.35 119.73,75.9 119.7,75.38 120.22,74.94 
		120.94,73.79 121.26,73.48 121.82,73.87 	"/>
	<polygon class="st2" points="106.31,93.72 105.64,93.13 102.46,88.55 102.29,87.49 105.49,90.93 106.71,93.06 	"/>
	<path class="st9" d="M103.85,101.41l-0.72-1.39L103.85,101.41z"/>
	<polygon class="st3" points="206.95,90.08 212.94,94.95 213.31,95.69 211.78,95.53 195.37,87.21 196.3,86.64 196.42,86.43 
		196.22,86.29 191.83,86.26 192.27,85.93 192.66,85.88 193.26,84.95 193.16,84.51 197.51,84.89 199.42,84.57 202.78,86.3 
		206.75,90.05 	"/>
	<polygon class="st14" points="199.42,84.57 197.51,84.89 193.16,84.51 185.55,82.17 185.04,81.51 185.15,81.4 195.16,82.31 
		196.01,83.88 197.8,84.3 198.86,84.31 	"/>
	<polygon class="st14" points="155.61,80.67 155.16,81.22 155.01,81.09 155.22,79.62 157.39,77.29 158.72,75.23 159.16,75.87 
		158.89,78.33 156.47,79.74 	"/>
	<polygon class="st2" points="179.4,87.38 179.33,87.89 175.63,93.46 175.25,93.72 174.95,92.33 179.18,87.5 	"/>
	<polygon class="st9" points="157.87,79.05 158.89,78.33 160.81,77.45 160.87,77.51 159.65,78.39 	"/>
	<polygon class="st9" points="161.24,77.22 161.3,77.36 160.87,77.51 160.81,77.45 	"/>
	<polygon class="st10" points="185.15,81.4 185.04,81.51 185.02,81.37 	"/>
	<polygon class="st14" points="184.47,200.49 180.28,208.69 179.96,208.61 179.58,207.55 179.67,207.19 183.96,200.22 
		184.37,200.08 	"/>
	<polygon class="st4" points="171.01,221.52 171.37,221.28 171.29,221.59 171.11,221.73 	"/>
	<polygon class="st12" points="108.14,221.81 100.91,213.28 101.7,212.53 103.23,212.82 104.97,214.83 108.06,221.23 	"/>
	<polygon class="st14" points="97.08,200.84 97.08,200.38 97.24,200.06 97.58,200.22 101.63,206.99 101.61,208.53 101.42,208.78 
		101.17,208.61 97.32,201.87 	"/>
	<polygon class="st0" points="110.18,221.28 110.47,221.54 110.26,221.58 	"/>
	<path class="st0" d="M113.62,233.55l-0.1-0.11L113.62,233.55z"/>
	<path class="st0" d="M113.9,233.81l-0.17-0.14L113.9,233.81z"/>
	<polygon class="st12" points="103.75,143.45 105.89,143.89 105.52,143.97 	"/>
	<path class="st7" d="M101.47,142.78l0.3,0.1L101.47,142.78z"/>
	<path class="st7" d="M182.46,142.09l0.42-0.12L182.46,142.09z"/>
	<polygon class="st13" points="214,179.76 213.56,180.81 213.56,180.81 212.26,183.77 211.91,183.35 211.16,181.29 207.99,176.91 
		208.09,176.28 213.15,179.11 213.73,179.02 214.07,179.38 	"/>
	<path class="st2" d="M206.45,198.8l-0.25,0.7L206.45,198.8z"/>
	<path class="st14" d="M206.87,197.97l-0.23,0.33L206.87,197.97z"/>
	<path class="st14" d="M209.3,191.76l-0.1,0.13L209.3,191.76z"/>
	<path class="st14" d="M209.16,192.15l-0.1,0.14L209.16,192.15z"/>
	<path class="st14" d="M207.56,196.16l-0.11,0.13L207.56,196.16z"/>
	<path class="st14" d="M208.9,192.83l-0.1,0.13L208.9,192.83z"/>
	<path class="st14" d="M208.76,193.21l-0.1,0.15L208.76,193.21z"/>
	<polygon class="st13" points="69.11,183.47 68.79,182.81 68.69,182.68 67.34,179.41 67.31,179.22 67.54,178.99 70,178.51 
		73.72,176.13 73.69,176.6 70.02,181.98 69.49,183.67 	"/>
	<polygon class="st8" points="75.22,199.77 74.79,198.17 75.37,199.17 	"/>
	<path class="st7" d="M70.85,188.48l-0.14-0.34L70.85,188.48z"/>
	<polygon class="st14" points="86.37,134.24 87.27,134.47 88.62,134.32 89.44,132.54 89.57,132.65 89.6,138.36 88.47,137.73 	"/>
	<polygon class="st5" points="90.28,139.83 90.22,139.81 90.27,139.84 	"/>
	<polygon class="st14" points="191.95,138.36 192.04,132.56 192.95,134.54 194.14,134.61 194.42,134.24 195.05,134.25 
		193.01,137.74 	"/>
	<polygon class="st5" points="191.28,139.84 191.33,139.78 191.33,139.81 191.28,139.84 	"/>
	<polygon class="st13" points="91.32,123.67 91.9,124.66 91.34,126.35 91.7,127.88 95.57,130.39 95.56,130.95 90.91,128.41 
		90.51,127.47 91.17,123.83 	"/>
	<polygon class="st13" points="102.53,134.8 102.96,134.44 110.65,133.43 110.96,133.45 110.62,133.68 105.45,135.25 104.69,136.34 
			"/>
	<polygon class="st13" points="185.82,130.86 186.39,130.03 189.66,127.91 190.2,126.46 189.62,124.63 190.21,123.69 190.32,123.68 
		191.09,127.75 190.94,128.19 185.96,130.93 	"/>
	<polygon class="st13" points="177.02,136.1 176.55,135.82 175.91,135.21 170.54,133.48 178.74,134.38 179.2,134.77 179.23,134.84 	
		"/>
	<polygon class="st7" points="185.82,130.86 185.96,130.93 184.86,131.54 	"/>
	<path class="st9" d="M179.92,134.46l0.31-0.2L179.92,134.46z"/>
	<polygon class="st9" points="179.23,134.84 179.2,134.77 179.56,134.66 	"/>
	<polygon class="st1" points="191.55,124.48 191.61,124.54 191.57,124.53 191.55,124.49 	"/>
	<path class="st6" d="M211.48,178.36l-0.34-0.15L211.48,178.36z"/>
	<path class="st1" d="M209.31,160.63l0.13,0.16L209.31,160.63z"/>
	<path class="st1" d="M72.12,160.79l0.14-0.14L72.12,160.79z"/>
	<polygon class="st13" points="145.65,175.25 142.22,174.79 141.62,174.56 139.43,172.76 139.61,171.64 140.44,171.49 
		145.68,171.83 147.09,172.55 147.23,172.97 147.21,174.3 146.37,175.27 	"/>
	<polygon class="st9" points="145.65,167.73 146.2,167.61 149.59,167.87 149.93,168.11 145.87,167.86 	"/>
	<polygon class="st7" points="192.21,181.74 192.29,181.45 192.48,181.88 	"/>
	<polygon class="st12" points="194.6,90.17 194.77,90.21 194.6,90.29 	"/>
	<path class="st5" d="M71.04,97.11L72,96.33L71.04,97.11z"/>
	<path class="st5" d="M72,96.33l0.4-0.26L72,96.33z"/>
	<path class="st12" d="M67.73,100.34l0.24-0.29L67.73,100.34z"/>
	<polygon class="st5" points="106.18,112.5 106.71,112.87 107.3,112.89 107.88,113.36 107.56,114.16 106.76,114.64 106.57,115.42 
		104.46,116.54 93.46,115.1 96.12,114.05 	"/>
	<polygon class="st5" points="173.29,114.95 173.07,114.49 175.08,115.3 174.72,114.6 173.92,114.13 173.59,113.48 174.21,112.88 
		174.88,112.87 175.24,112.5 185.37,114.08 187.61,114.96 185.06,115.22 180.81,116.46 179.25,116.61 175.53,116.1 	"/>
	<path class="st4" d="M166.09,115.16l-0.41,0.27L166.09,115.16z"/>
	<path class="st4" d="M179.66,107.69l0.2,0.07L179.66,107.69z"/>
	<path class="st4" d="M166.34,115.01l-0.16,0.12L166.34,115.01z"/>
	<path class="st7" d="M71.87,160.8l-0.4,0.27L71.87,160.8z"/>
	<path class="st7" d="M211.03,161.72l-0.39-0.27L211.03,161.72z"/>
	<path class="st7" d="M211.42,162l-0.39-0.28L211.42,162z"/>
	<path class="st6" d="M68.69,182.68l0.1,0.13L68.69,182.68z"/>
	<path class="st8" d="M213.41,181.2l0.15-0.39L213.41,181.2z"/>
	<path class="st8" d="M213.81,180.27l0.15-0.4L213.81,180.27z"/>
	<path class="st8" d="M213.56,180.81l0.11-0.18L213.56,180.81z"/>
	<polygon class="st11" points="135.36,65.74 136.41,66.78 139.25,75.21 139.43,75.43 139.61,75.12 139.44,74.69 139.53,73.94 
		140.34,73.44 140.57,72 140.8,71.45 141.31,73.95 141.98,73.92 142.04,74.72 141.99,74.84 142.06,75.37 142.31,74.96 145.29,66.46 
		146.18,65.75 146.55,66.04 149.82,69.97 150.36,69.87 151.23,68.38 152.96,63.64 153.32,63.19 153.79,63.88 149,74.29 
		148.63,74.62 141.48,87.29 140,87.28 127.9,64.29 127.76,63.78 128.09,63.19 128.46,63.31 130.98,69.59 131.98,69.65 135.23,65.75 
		135.3,65.76 	"/>
	<polygon class="st4" points="131.38,72.03 132.44,74.3 132.28,74.41 128.71,80.52 127.54,81.75 127.45,81.92 126.56,80.96 
		126.45,79.83 124.8,78.18 124.1,77.07 123.95,76.63 121.82,73.87 123.17,73.1 130.67,72.37 	"/>
	<polygon class="st6" points="135.36,65.74 135.3,65.76 135.23,65.75 135.27,65.49 136.69,64.14 136.31,64.73 	"/>
	<path class="st6" d="M135.23,65.75l-0.42,0.5L135.23,65.75z"/>
	<polygon class="st4" points="149,74.29 150.04,72.16 158.46,73.09 159.97,73.66 155.22,79.62 155.01,81.09 154.12,81.78 
		152.99,80.97 149.33,74.58 	"/>
	<polygon class="st2" points="158.72,75.23 159.97,73.66 160.46,73.37 160.55,73.82 161.38,75.15 161.69,75.37 161.24,77.22 
		158.89,78.33 159.16,75.87 	"/>
	<polygon class="st9" points="146.55,66.04 146.18,65.75 146.19,65.6 	"/>
	<polygon class="st5" points="65.31,76.06 66.54,77.07 68.04,77.76 69.56,77.95 70.33,77.87 72.6,77.1 72.83,76.62 72.77,76.5 
		72.74,75.84 73.69,76.17 73.92,77 73.84,77.22 71.72,80.47 70.25,84.52 69.99,86.91 69.82,86.86 65,78.46 64.49,76.89 64.81,76.06 
			"/>
	<polygon class="st10" points="65.31,76.06 64.81,76.06 64.73,72.22 69.19,74.55 69.49,74.82 69.2,74.96 65.45,75.93 	"/>
	<polygon class="st3" points="69.19,51.99 68.42,50.78 67.29,46.75 67.03,46.33 66.66,46.74 65.27,53.9 65.34,55.01 65.42,55.33 
		65.32,56.04 65.04,55.44 65.14,49.82 66.22,46.52 67.04,45.45 67.23,45.42 67.72,45.99 69.34,51.25 	"/>
	<polygon class="st7" points="72.66,73.77 71.73,72.97 71.96,72.61 71.86,72.16 71.99,71.74 71.99,62.35 71.4,61.5 70.66,62.01 
		70.65,61.22 70.09,60.55 70.02,58.16 72.41,61.46 72.13,62.17 	"/>
	<path class="st6" d="M67.23,45.42l-0.19,0.03L67.23,45.42z"/>
	<polygon class="st12" points="69.87,68.55 65.84,60.69 66.22,60.73 67.7,62.66 69.21,65.54 69.64,65.94 69.86,65.36 69.88,63.7 
		70.08,63.19 70.35,68.72 	"/>
	<polygon class="st8" points="70.35,68.72 70.09,60.55 70.65,61.22 70.98,68.8 71.96,72.61 71.73,72.97 70.27,69.14 	"/>
	<polygon class="st0" points="62.77,64.7 62.54,64.79 62.51,63.09 	"/>
	<polygon class="st5" points="70.35,68.72 70.27,69.14 69.87,68.55 	"/>
	<polygon class="st5" points="211.71,86.72 209.93,80.74 207.96,77.62 207.73,76.34 208.26,75.8 208.81,75.92 208.8,76.42 
		208.64,76.71 208.87,77.1 213.4,77.62 214.92,77.16 216.24,76.06 216.64,76.16 216.86,77.63 211.97,86.42 	"/>
	<polygon class="st10" points="216.64,76.16 212.05,74.81 216.89,72.15 	"/>
	<polygon class="st3" points="216.25,49.71 216.49,55.74 216.25,56.07 216.1,55.75 214.83,46.69 214.5,46.33 214.25,46.68 
		212.8,51.3 212.35,52.02 212.18,51.33 213.94,45.69 214.69,45.58 215.43,46.94 215.32,47.06 	"/>
	<polygon class="st7" points="209.68,72.96 209.38,73.54 208.78,73.78 209.3,61.79 209.03,61.48 211.11,58.43 211.46,58.22 
		211.49,58.58 211.3,60.53 210.88,61.46 210.22,61.48 209.61,61.97 209.57,71.21 209.7,71.76 	"/>
	<polygon class="st4" points="210.65,58.99 207.84,63.24 207.19,63.38 206.91,62.68 209.51,58.75 210.04,58.38 	"/>
	<polygon class="st9" points="215.68,47.87 215.32,47.06 215.43,46.94 	"/>
	<polygon class="st8" points="209.68,72.96 209.7,71.76 209.78,71.67 210.88,61.46 211.3,60.53 211.43,63.35 211.3,63.91 
		211.3,68.46 211.42,68.96 210.1,72.3 	"/>
	<polygon class="st12" points="211.42,68.96 211.3,68.46 211.3,63.91 211.43,63.35 211.7,65.56 211.91,65.95 215.12,60.97 
		215.76,60.55 211.55,68.82 	"/>
	<polygon class="st0" points="219.06,62.96 218.99,64.88 218.78,64.03 	"/>
	<polygon class="st14" points="205.19,88.56 202.78,86.3 205.57,82.84 205.83,84.57 205.36,85.72 205.33,88.13 	"/>
	<polygon class="st2" points="205.19,88.56 205.33,88.13 205.36,85.72 205.83,84.57 206.07,87.09 206.94,90.08 206.75,90.05 	"/>
	<polygon class="st14" points="78.13,86.97 76.13,88.59 76.26,87.89 76.13,85.51 75.66,84.67 75.49,83.98 75.88,82.86 78.19,85.64 
		78.68,85.92 	"/>
	<polygon class="st6" points="78.13,86.97 78.68,85.92 80.84,85.19 	"/>
	<polygon class="st2" points="75.66,84.67 76.13,85.51 76.26,87.89 76.13,88.59 74.8,89.68 75.7,85.58 	"/>
	<polygon class="st0" points="90.06,64.88 89.55,64.93 88.26,64.82 87.86,64.58 89.43,64.57 	"/>
	<polygon class="st11" points="149.47,91.88 149.6,92.54 149.27,93.76 149.26,96.76 150.61,101.8 151.09,102.05 151.37,101.65 
		151.69,100.8 152.08,100.63 152.32,101 152.32,101.27 152.91,103.03 151.77,111.68 152.34,112.48 151.96,113.68 150.44,115.44 
		150.23,116.03 150.19,119.11 141.37,142.96 141.01,143.4 140.5,143.06 133.41,127.08 131.26,118.35 131.27,116.15 130.95,115.32 
		129.73,113.91 129.2,112.48 129.76,111.77 128.64,103.24 129.23,101.37 129.25,100.9 129.73,100.76 130.39,102.05 130.8,101.89 
		130.94,101.67 132.45,95.64 132.03,91.92 134.89,97.5 134.65,100.94 132.08,111.09 132.21,111.8 132.57,111.83 136.49,97.03 
		137.31,95.98 138.04,95.53 138.98,94.58 138.97,94.59 139.19,94.5 139.36,94.22 140.6,93.15 141.09,94.11 145.1,96.98 
		148.88,111.72 149.12,111.91 149.37,111.64 149.33,109.98 146.55,99.53 147.03,96.42 	"/>
	<path class="st9" d="M148.25,126.53l0.3-0.73L148.25,126.53z"/>
	<polygon class="st3" points="115.62,124.88 115.1,125.8 114.51,126.24 110.99,125.74 110.38,125.28 108.51,123.14 108.2,122.1 
		108.67,121.61 109.64,119.74 110.55,119.55 111.49,120.09 112.17,121.9 112.75,122.47 114.68,123.11 	"/>
	<polygon class="st10" points="115.25,121.83 116.19,119.94 116.66,119.88 117.02,120.34 118.47,123.63 118.36,124.22 
		117.63,124.89 116.04,122.4 	"/>
	<polygon class="st12" points="115.25,121.83 116.04,122.4 117.63,124.89 116.71,125.68 116.1,125.39 115.62,124.88 114.68,123.11 	
		"/>
	<polygon class="st5" points="109.64,119.74 108.67,121.61 108.2,122.1 108.54,121.05 108.44,120.46 108.22,120.16 108.59,119.84 	
		"/>
	<path class="st12" d="M120.43,132.23l-0.27-0.27L120.43,132.23z"/>
	<path class="st12" d="M123.85,129.12l0.05,0.31L123.85,129.12z"/>
	<polygon class="st3" points="166.87,123.1 167.27,123.11 168.24,122.57 169.99,120.07 171.21,119.63 172.05,119.83 172.8,120.79 
		173.35,122.69 173.15,123.13 172.3,123.87 171.45,125.03 170.78,125.58 169.45,126.07 167.2,126.24 166.4,125.79 165.97,124.96 
		166.16,124.29 	"/>
	<polygon class="st10" points="163.86,124.78 162.91,123.67 162.86,123.2 164.74,120 165.43,120.14 166.2,121.81 165.36,122.37 
		164.19,124.02 	"/>
	<polygon class="st12" points="163.86,124.78 164.79,123.02 165.36,122.37 166.2,121.81 166.87,123.1 166.16,124.29 165.97,124.96 
		165.42,125.37 164.45,125.56 	"/>
	<polygon class="st12" points="172.8,120.79 172.05,119.83 172.97,119.83 173.34,120.16 	"/>
	<path class="st10" d="M171.64,114.24l0.59,0.29L171.64,114.24z"/>
	<polygon class="st13" points="134.89,97.5 126.56,81.87 126.33,81 126.56,80.96 127.45,81.92 136.04,95.66 136.49,97.03 
		136.17,98.05 	"/>
	<polygon class="st13" points="145.19,98.03 145.1,96.98 145.54,95.67 154.12,81.78 155.01,81.09 155.16,81.22 146.41,97.49 
		145.58,98.05 	"/>
	<polygon class="st9" points="154.12,81.78 145.54,95.67 145.35,95.41 141.27,93.17 140.6,93.15 139.36,94.22 139.19,94.5 
		138.97,94.59 138.98,94.58 136.04,95.66 127.45,81.92 127.54,81.75 128.71,80.52 132.28,74.41 132.44,74.3 140,87.28 141.48,87.29 
		148.63,74.62 149,74.29 149.33,74.58 152.99,80.97 	"/>
	<polygon class="st2" points="71.86,72.16 70.98,68.8 70.66,62.01 71.4,61.5 71.99,62.35 71.99,71.74 	"/>
	<polygon class="st2" points="210.88,61.46 209.78,71.67 209.7,71.76 209.57,71.21 209.61,61.97 210.22,61.48 	"/>
	<polygon class="st6" points="145.19,98.03 145.58,98.05 146.41,97.49 147.03,96.42 146.55,99.53 149.33,109.98 149.37,111.64 
		149.12,111.91 148.88,111.72 	"/>
	<polygon class="st6" points="134.89,97.5 136.17,98.05 132.57,111.83 132.21,111.8 132.08,111.09 134.65,100.94 	"/>
	<polygon class="st14" points="140.6,93.15 141.27,93.17 145.35,95.41 145.54,95.67 145.1,96.98 141.09,94.11 	"/>
	<polygon class="st15" points="136.04,95.66 138.98,94.58 138.04,95.53 137.31,95.98 136.49,97.03 	"/>
	<path class="st7" d="M146.59,99.93l-0.04-0.4L146.59,99.93z"/>
	<path class="st15" d="M138.97,94.59l0.22-0.09L138.97,94.59z"/>
</g>
</svg>
