<?xml version="1.0" encoding="utf-8"?>
<!-- Generator: Adobe Illustrator 27.6.1, SVG Export Plug-In . SVG Version: 6.00 Build 0)  -->
<svg version="1.1" id="Capa_1" xmlns="http://www.w3.org/2000/svg" xmlns:xlink="http://www.w3.org/1999/xlink" x="0px" y="0px"
	 viewBox="0 0 260.41 92.56" style="enable-background:new 0 0 260.41 92.56;" xml:space="preserve">
<style type="text/css">
	.st0{enable-background:new    ;}
	.st1{fill:#B6B2A7;}
	.st2{fill:#1E202D;}
	.st3{fill:#66869F;}
</style>
<g>
	<g class="st0">
		<path class="st1" d="M192.9,57.37h-15.26l-2.91,7.04h-7.8l14.65-32.88h7.51l14.7,32.88h-7.98L192.9,57.37z M190.51,51.6
			l-5.21-12.59l-5.21,12.59H190.51z"/>
		<path class="st1" d="M226.2,64.42l-6.34-9.16h-0.38h-6.62v9.16h-7.61V31.54h14.23c8.78,0,14.28,4.56,14.28,11.93
			c0,4.93-2.49,8.55-6.76,10.38l7.37,10.57H226.2z M219.06,37.74h-6.2V49.2h6.2c4.65,0,7-2.16,7-5.73
			C226.06,39.85,223.71,37.74,219.06,37.74z"/>
	</g>
	<g class="st0">
		<path class="st2" d="M28.85,31.54h7.61v26.68h16.49v6.2H28.85V31.54z"/>
		<path class="st2" d="M52.61,47.98c0-9.77,7.61-17,17.99-17c10.33,0,17.99,7.19,17.99,17c0,9.82-7.66,17-17.99,17
			C60.22,64.98,52.61,57.75,52.61,47.98z M80.89,47.98c0-6.25-4.41-10.52-10.29-10.52c-5.87,0-10.29,4.27-10.29,10.52
			c0,6.25,4.42,10.52,10.29,10.52C76.47,58.5,80.89,54.23,80.89,47.98z"/>
		<path class="st2" d="M122.5,55.45c0,5.68-4.51,8.97-13.15,8.97h-17V31.54h16.06c8.22,0,12.45,3.43,12.45,8.55
			c0,3.29-1.69,5.82-4.37,7.23C120.15,48.5,122.5,51.31,122.5,55.45z M99.91,37.27v7.75h7.56c3.71,0,5.73-1.31,5.73-3.9
			c0-2.58-2.02-3.85-5.73-3.85H99.91z M114.84,54.65c0-2.77-2.11-4.09-6.06-4.09h-8.88v8.13h8.88
			C112.73,58.69,114.84,57.47,114.84,54.65z"/>
		<path class="st2" d="M124.23,47.98c0-9.77,7.61-17,17.99-17c10.33,0,17.99,7.19,17.99,17c0,9.82-7.66,17-17.99,17
			C131.84,64.98,124.23,57.75,124.23,47.98z M152.51,47.98c0-6.25-4.42-10.52-10.29-10.52c-5.87,0-10.29,4.27-10.29,10.52
			c0,6.25,4.42,10.52,10.29,10.52C148.09,58.5,152.51,54.23,152.51,47.98z"/>
	</g>
	<g>
		<path class="st3" d="M166.92,64.41h-7.77l14.94-32.87h7.49L166.92,64.41z"/>
	</g>
</g>
</svg>
